<?xml version="1.0" encoding="UTF-8"?>
<svg id="Camada_1" xmlns="http://www.w3.org/2000/svg" version="1.1" viewBox="0 0 1920 1080">
  <!-- Generator: Adobe Illustrator 29.8.3, SVG Export Plug-In . SVG Version: 2.1.1 Build 3)  -->
  <defs>
    <style>
      .st0 {
        font-family: Georama-ExtraBold, Georama;
        font-size: 200.3px;
        font-weight: 700;
      }

      .st0, .st1 {
        fill: #008200;
      }

      .st2 {
        fill: #00b0db;
      }

      .st3 {
        fill: #006000;
      }

      .st4, .st5 {
        fill: #fff;
      }

      .st5 {
        stroke: #fff;
        stroke-linecap: round;
        stroke-linejoin: round;
        stroke-width: 40px;
      }

      .st6 {
        fill: #745424;
      }

      .st7 {
        fill: #4a300a;
      }

      .st8 {
        fill: #047ab9;
      }

      .st9 {
        fill: #ffcf00;
      }

      .st10 {
        fill: #9f7d4b;
      }

      .st11 {
        fill: #fbbc10;
      }

      .st12 {
        fill: #00a400;
      }
    </style>
  </defs>
  <rect class="st4" x="-1940" width="1920" height="540"/>
  <g>
    <g>
      <g>
        <path class="st11" d="M-1183.3,279.9c3.6-12.7,5.6-26,5.6-39.8,0-80.3-65.1-145.4-145.4-145.4s-145.4,65.1-145.4,145.4,2,27.2,5.6,39.8h279.7Z"/>
        <path class="st9" d="M-1188.4,279.9c3.9-12.2,6-25.1,6-38.6,0-69.8-56.6-126.4-126.4-126.4s-126.4,56.6-126.4,126.4,2.1,26.4,6,38.6h240.8Z"/>
      </g>
      <path class="st8" d="M-1546.9,244.7c61.2-37.2,137.2-49,210.8-25.4,53.7,17.2,97.7,50.6,128.5,93,12.9-8,25.1-17.1,36.4-27.2-40.1-55-101.9-94.1-174.8-103.2-76.6-9.7-149.8,15.8-203.1,63.7"/>
      <path class="st2" d="M-1542.6,244.5c64.2-31.7,136.8-36.7,208-6.8,52,21.8,93,58.9,120,103.8,13.5-6.8,26.5-14.9,38.6-24-35.2-58.3-93.4-102.5-165.2-118-75.5-16.3-145.9,2.9-203.1,45.9"/>
      <path class="st7" d="M-1422.5,412c-.3,4.6-.4,9.3-.4,13.9,25.9,12.7,54.7,20.6,85.3,22.5,124.4,7.7,231.5-86.9,239.3-211.3.3-4.7.4-9.3.4-13.9-25.9-12.7-54.7-20.6-85.3-22.5-124.4-7.7-231.5,86.9-239.3,211.3Z"/>
      <path class="st6" d="M-1405.9,404.4c-.3,4.2-.4,8.3-.4,12.4,23.3,11.4,49.1,18.5,76.6,20.2,111.7,6.9,207.9-78,214.8-189.7.3-4.2.4-8.3.4-12.5-23.3-11.4-49.1-18.5-76.6-20.2-111.7-6.9-207.9,78-214.8,189.7Z"/>
      <path class="st10" d="M-1345.7,297.1c1.7.6,3.4,1.2,5.1,1.8,16.3-8.1,34-14,53-17.3,35.3-6.2,70.5-2.6,103.3,8.8,3.6-1.7,7.2-3.6,10.7-5.5-34.6-12.4-71.9-16.4-109.3-9.8-22.7,4-43.8,11.6-62.8,22.1ZM-1269.1,255.9c-32.6,5.7-61.7,18.8-86.3,37.4,1.2.5,2.4,1,3.6,1.4,22.6-15.9,48.9-27.2,78-32.3,39.5-6.9,79-1.6,115,13.2,3-2,5.9-4.1,8.7-6.2-37.2-15.3-78.1-20.8-119-13.6ZM-1255.4,236.9c-41.6,7.3-77.6,26.6-105.6,54.1.9.4,1.8.8,2.7,1.2,26.5-24.7,59.9-42,98.2-48.7,42-7.4,84.2-.9,121.9,16.3,2.5-2.2,4.9-4.5,7.3-6.8-38.7-17.1-81.7-23.5-124.6-16ZM-1328.9,302.4c3,.8,6.1,1.6,9.1,2.3,6-1.6,12.1-3,18.4-4.1,27.8-4.9,55.6-3.7,82.2,2.6,5-1.4,10-2.9,15-4.6-29.7-8.1-61.1-10.1-92.5-4.6-11.1,1.9-21.9,4.8-32.1,8.4ZM-1241.6,217.9c-50.2,8.5-92.2,35.1-121.9,72,.7.3,1.5.6,2.2,1,28.5-34,68.1-58.2,115-66.4,43.4-7.6,86.8-.5,125.5,17.9,2.1-2.4,4.2-4.9,6.2-7.4-39.1-19.5-77.7-25.4-127.1-17.1Z"/>
      <g>
        <path class="st3" d="M-1549.1,245.4c10.9,108.1,98.7,195.5,210.6,202.4,48.1,3,93.6-9.3,131.8-32.8-10.9-108.1-98.7-195.5-210.6-202.4-48.1-3-93.6,9.3-131.8,32.8Z"/>
        <path class="st12" d="M-1513.9,262.9c8.6,85.9,78.4,155.3,167.3,160.8,38.2,2.4,74.4-7.4,104.7-26-8.6-85.9-78.4-155.3-167.3-160.8-38.2-2.4-74.4,7.4-104.7,26Z"/>
        <path class="st12" d="M-1531.8,253c9.7,96.5,88.1,174.6,188.1,180.8,43,2.7,83.6-8.3,117.7-29.3-9.7-96.5-88.1-174.6-188.1-180.8-43-2.7-83.6,8.3-117.7,29.3Z"/>
        <path class="st1" d="M-1394.1,298.2s120.8,21.6,156.5,112.9c2.3,5.8-100.3,50.6-191.6-1.7-32-18.4-67.8-49.4-87-96.8-.7.4,56-23.9,122.1-14.4Z"/>
        <path class="st3" d="M-1226,394.1s-35.2-78-168.1-95.9c2.9,2.1,123.2,27.7,156,114.1,2.2-.9,12.1-6,12.1-6v-12.3Z"/>
      </g>
    </g>
    <g>
      <g>
        <path class="st1" d="M-968.9,352.7c-3.6,0-7.2-.4-10.8-1.2-3.6-.8-7.2-2.1-10.8-3.9-3.6-1.8-7.2-4.1-10.8-7-3.6-2.9-7.3-6.4-11-10.5-3.7-4.1-7.5-8.9-11.4-14.3h-9.4v35.2h-32.9v-113.6c7-.3,13.5-.6,19.3-.8,5.8-.2,11.2-.4,16.1-.5,4.9-.1,9.2-.2,13-.2,9.2,0,17.1.7,23.7,2.1,6.6,1.4,12,3.6,16.1,6.5,4.2,2.9,7.2,6.7,9.2,11.3,1.9,4.6,2.9,10,2.9,16.1s-1,11.7-2.9,16.3c-1.9,4.6-4.7,8.4-8.1,11.3-3.5,2.9-7.6,5.1-12.3,6.7,2.3,2.5,4.5,4.7,6.7,6.5,2.2,1.8,4.3,3.4,6.3,4.5,2,1.2,3.9,2.1,5.8,2.7,1.9.6,3.8.9,5.6.9s.9,0,1.4,0c.5,0,.9,0,1.4,0v31.3c-.8.1-1.7.2-2.8.4-1.1.2-2.5.2-4.1.2ZM-1017.6,293.3c3.1,0,5.8-.3,8-1,2.2-.6,4.1-1.6,5.5-3,1.5-1.4,2.5-3.1,3.2-5.2.7-2.1,1.1-4.7,1.1-7.7s-.5-6.5-1.5-8.7c-1-2.2-2.7-3.8-5.3-4.9-2.5-1-6-1.5-10.5-1.5h-3.9c-1.1,0-2.2,0-3.3,0-1.1,0-2.4.1-3.8.2-1.4,0-3.1.2-5.2.4v30.8c1.4.1,2.6.2,3.7.2,1.1,0,2.2.1,3.3.2,1.1,0,2.4,0,3.7,0h4.8Z"/>
        <path class="st1" d="M-910.6,352.7c-7.2,0-13.7-.8-19.3-2.4-5.6-1.6-10.4-4.2-14.3-7.8-3.9-3.6-6.9-8.2-8.9-13.9-2.1-5.7-3.1-12.5-3.1-20.4s1.1-15.9,3.3-22c2.2-6.1,5.4-11,9.5-14.8,4.1-3.7,9-6.5,14.6-8.2,5.6-1.7,11.8-2.6,18.5-2.6,13.6,0,23.7,3.3,30.1,9.9,6.4,6.6,9.7,17.3,9.7,32.1s0,2.7,0,4.6c0,1.9-.1,3.7-.2,5.3-2.9.2-6.4.5-10.3.8-4,.3-8.2.6-12.8,1-4.6.3-9.4.6-14.4.9-5,.3-10,.5-15.1.7v1.5c.1,2.3.7,4.2,1.9,5.8,1.1,1.6,3.1,2.8,5.8,3.6,2.8.8,6.4,1.2,11,1.2s6-.2,9.2-.5c3.2-.3,6.6-.8,10.1-1.4,3.5-.6,7.1-1.3,10.6-2l3.7,22.7c-4.1,1.4-8.3,2.5-12.4,3.3-4.2.8-8.5,1.4-12.9,1.9-4.4.4-9.2.6-14.3.6ZM-923.3,298.2c1.9,0,3.9,0,5.8-.2,1.9-.1,3.9-.2,5.8-.2,1.9,0,3.6-.1,5.3-.2,1.6-.1,3-.2,4.2-.2-.1-3.8-.5-6.7-1.3-8.8-.8-2.1-1.8-3.6-3.2-4.5-1.4-.9-3.2-1.3-5.4-1.3s-2.7.2-4,.6c-1.2.4-2.4,1.2-3.3,2.4s-1.8,2.7-2.4,4.7c-.6,2-1.1,4.6-1.5,7.7Z"/>
        <path class="st1" d="M-825.5,386.8c-13.2,0-23.2-1.8-30-5.4-6.8-3.6-10.2-9.1-10.2-16.5s.5-5.7,1.5-8.1c1-2.4,2.6-4.5,4.7-6.4,2.1-1.9,4.7-3.4,7.9-4.6l14.9,5.7c-1,.5-1.8,1.1-2.5,1.7-.7.6-1.2,1.2-1.6,1.9-.4.7-.6,1.5-.6,2.5,0,1.7.5,3.1,1.6,4.1,1.1,1,2.9,1.7,5.6,2.2,2.6.5,6.3.7,11,.7s7.9-.3,10.9-.8c2.9-.5,5.1-1.3,6.6-2.3,1.5-1,2.2-2.2,2.2-3.7s-.2-1.9-.6-2.5c-.4-.6-1.4-1-2.8-1.3-1.5-.3-3.6-.4-6.4-.4h-16.4c-6.5,0-12.2-.7-17-2.2-4.9-1.5-8.6-3.7-11.3-6.7-2.7-3-4-6.8-4-11.4s1.3-8.7,3.8-11.9c2.5-3.2,5.8-5.9,9.8-8l15.6,3.9c-1.7,1.1-3,2.1-3.9,3.2-.9,1-1.3,2.3-1.3,3.8s.6,2.8,1.9,3.7c1.2.8,3.1,1.2,5.6,1.2h28.1c9.1,0,16.2,2.2,21.3,6.6,5.1,4.4,7.6,10.5,7.6,18.3s-1.9,13-5.8,17.9c-3.9,4.9-9.7,8.7-17.3,11.2-7.6,2.5-17.2,3.8-28.6,3.8ZM-822.2,322.4c-13.1,0-23-2.6-29.6-7.8-6.7-5.2-10-12.9-10-23s3.3-18,10-23.1c6.7-5.1,16.5-7.7,29.6-7.7s23.1,2.6,29.7,7.7c6.6,5.1,9.9,12.8,9.9,23.1s-3.3,17.8-9.9,23c-6.6,5.2-16.5,7.8-29.7,7.8ZM-822.2,302.7c3.4,0,5.8-.8,7.4-2.4,1.6-1.6,2.4-4.5,2.4-8.8s-.8-7.4-2.4-9c-1.6-1.6-4-2.4-7.4-2.4s-5.7.8-7.2,2.4c-1.6,1.6-2.4,4.6-2.4,9s.8,7.3,2.4,8.8c1.6,1.6,4,2.4,7.2,2.4ZM-787.5,284.7l-11.8-16.1c1.5-4.2,3.9-7.4,7.1-9.4,3.2-2.1,7.2-3.1,12.1-3.1s3.4.1,5,.3c1.6.2,3,.6,4.2,1.1l-3.6,23.9c-1-.2-2-.4-3-.6-1-.2-2.1-.2-3.3-.2s-2.5.3-3.7,1c-1.2.6-2.2,1.7-2.9,3.1Z"/>
        <path class="st1" d="M-748.4,256.3c-6.4,0-11.1-1.3-14.1-4-3-2.6-4.5-6.6-4.5-11.8s1.5-9.4,4.5-12c3-2.6,7.7-3.9,14.1-3.9s11.2,1.3,14.2,3.9c3,2.6,4.5,6.6,4.5,12s-1.5,9.1-4.4,11.8c-2.9,2.7-7.7,4-14.3,4ZM-764.3,351.1v-88.8h31.8v88.8h-31.8Z"/>
        <path class="st1" d="M-723.1,347.8l3.2-22.7c2.1.6,4.4,1.2,7.1,1.8,2.6.5,5.4,1,8.2,1.5,2.8.4,5.6.8,8.3,1,2.7.2,5.1.3,7.3.3,3.4,0,5.8-.4,7.3-1.2,1.5-.8,2.3-2,2.3-3.5s-.6-2.1-1.7-2.8c-1.1-.6-2.7-1.2-4.7-1.7-2-.5-4.3-.9-6.9-1.4-2.6-.4-5.4-1-8.4-1.8-3.5-.8-6.5-1.8-9.2-3.2-2.7-1.4-4.9-3.2-6.7-5.4-1.8-2.2-3.2-4.6-4-7.5-.8-2.8-1.2-6-1.2-9.6,0-10.6,3.2-18.4,9.7-23.4,6.4-5,16-7.5,28.8-7.5s7.8.2,11.3.6c3.5.4,6.9,1,10.1,1.6,3.2.6,6.2,1.5,9,2.4l-3.7,23c-2.6-.9-5.2-1.6-7.9-2.2-2.7-.6-5.5-1.1-8.4-1.4-3-.3-6.4-.5-10.3-.5s-5,.3-6.6,1c-1.6.6-2.4,1.8-2.4,3.4s.3,1.7,1,2.3c.6.5,1.7,1,3.1,1.4,1.4.4,3.2.8,5.3,1.1,2.1.4,4.6.8,7.4,1.2,3.9.6,7.5,1.6,10.7,2.8,3.2,1.2,6.1,2.9,8.6,4.9,2.5,2,4.4,4.6,5.8,7.8,1.4,3.2,2,7.1,2,11.6s-.7,8.9-2.1,12.3c-1.4,3.5-3.4,6.4-5.9,8.8-2.5,2.4-5.5,4.3-8.9,5.7-3.4,1.4-7.1,2.4-11.2,3.1-4.1.6-8.2,1-12.6,1s-7.7-.2-11.5-.5c-3.8-.3-7.5-.9-11-1.6-3.6-.8-7.2-1.7-10.9-2.8Z"/>
        <path class="st1" d="M-607.7,352.7c-6.1,0-11.2-1.2-15.4-3.5s-7.4-6-9.6-11c-2.2-5-3.2-11.5-3.2-19.6v-33.4h-11.7v-21.1l11.7-1.8,3.7-18.2h28.1v18.2h19.5v22.9h-19.5v30.8c0,3.8.6,6.4,1.9,7.7,1.3,1.4,3.2,2,5.8,2s3.2-.2,5-.5c1.8-.3,3.9-.7,6.2-1.1l4.2,24.2c-4.7,1.6-9.2,2.8-13.7,3.4s-8.8,1-13.1,1Z"/>
        <path class="st1" d="M-544.7,262.3v10.1c3-2.8,5.7-5.1,8.1-6.8,2.4-1.7,4.8-3,7.2-3.7,2.4-.8,5.2-1.1,8.2-1.1s3.4.1,5.2.4c1.8.3,3.8.7,5.8,1.4l-5,28.9c-1.9-.5-3.9-.9-5.8-1.1-1.9-.2-3.6-.3-5.3-.3-2.4,0-4.8.3-7.3.9-2.5.6-5.2,1.8-8.1,3.7v56.6h-31.8v-88.8h28.7Z"/>
        <path class="st1" d="M-483.1,385.2l10.9-34.1h-3.6l-32.3-88.8,35.1-.2,15.3,63.6,15.3-63.6,33.6.2-40.2,123-33.9-.2Z"/>
      </g>
      <g>
        <path class="st3" d="M-1023.7,213.6c-1.4,0-2.8-.2-4.2-.7-1.4-.5-2.8-1.2-4.3-2.2-1.4-1-2.9-2.2-4.4-3.7-1.5-1.5-3-3.3-4.7-5.4-1.7-2.1-3.4-4.5-5.2-7.2-.4,0-.9,0-1.6,0h-4.6c-1,0-2.1,0-3.2,0v18.4h-10.3v-52.2c2.7-.1,5.1-.3,7.3-.4,2.2,0,4.3-.2,6.2-.2,1.9,0,3.7,0,5.5,0,4,0,7.4.3,10.2.9,2.9.6,5.2,1.5,6.9,2.8,1.8,1.2,3.1,2.9,3.9,4.9.8,2,1.2,4.5,1.2,7.3s-.4,5.5-1.3,7.7c-.9,2.1-2.2,3.9-3.9,5.2-1.7,1.3-3.7,2.3-6.2,3.1,1.5,2.1,2.9,3.8,4.2,5.3,1.3,1.4,2.6,2.7,3.7,3.6,1.1,1,2.2,1.7,3.1,2.2.9.5,1.8.7,2.7.7s.3,0,.6,0c.2,0,.4,0,.6,0v9.8c-.1,0-.5,0-.9.1-.4,0-.9,0-1.5,0ZM-1047.5,186.4c2,0,3.8-.1,5.3-.4,1.6-.3,2.8-.8,3.8-1.5,1-.7,1.7-1.6,2.2-2.8.5-1.1.7-2.6.7-4.4s-.3-3.9-1-5.3c-.7-1.3-1.9-2.3-3.5-2.9-1.7-.6-4-.9-7-.9h-2.2c-.6,0-1.3,0-1.9,0-.6,0-1.3,0-2,0-.7,0-1.6,0-2.7.2v17.6c.8,0,1.6,0,2.3.1.7,0,1.4,0,2,0,.7,0,1.4,0,2,0h2Z"/>
        <path class="st3" d="M-1007.4,213.6c-2.3,0-4.4-.4-6.1-1.3s-3.1-2.1-4-3.9c-1-1.7-1.5-3.9-1.5-6.5v-29.3h9.9v27.1c0,1.8.5,3.2,1.5,4.2,1,1,2.3,1.5,4.1,1.5s2,0,2.9-.3c.9-.2,1.8-.5,2.7-.9.9-.4,1.9-.8,2.9-1.3v-30.2h9.8v29.2c0,.8,0,1.5.3,2,.2.5.5.9.8,1.1.3.2.7.3,1.1.3.6,0,1.2-.1,1.8-.4l.9,7.1c-.6.3-1.3.6-2,.9-.7.2-1.5.4-2.3.6-.8.1-1.6.2-2.5.2-1.6,0-3-.3-4.2-1-1.2-.7-2-1.7-2.6-3.1-1.4.8-2.9,1.5-4.3,2.2-1.4.7-2.9,1.2-4.4,1.5-1.5.3-3.1.5-4.8.5Z"/>
        <path class="st3" d="M-969,172.6v4.8c1.4-1.3,2.8-2.4,3.9-3.2,1.2-.8,2.4-1.4,3.6-1.8,1.2-.4,2.6-.6,4.1-.6s1.7,0,2.6.2c.9.1,1.9.3,2.8.6l-1.6,9.1c-.8-.2-1.7-.4-2.7-.6-.9-.1-1.8-.2-2.6-.2-1.4,0-2.9.3-4.4.8-1.5.5-3.1,1.5-4.8,2.8v28.3h-9.9v-40.3h9Z"/>
        <path class="st3" d="M-953.9,202.4c0-2.5.5-4.5,1.4-6.1.9-1.6,2.4-2.8,4.4-3.7,2-.9,4.4-1.6,7.4-2.1,3-.5,6.4-.9,10.5-1.3v-3.8c0-1.7-.7-3-2-3.9-1.4-.9-3.3-1.3-5.8-1.3s-2.1,0-3.5.1c-1.3.1-2.7.3-4,.5-1.4.2-2.8.6-4.4,1.1l-1.6-8c2.2-.7,4.6-1.2,7.1-1.6,2.5-.4,4.9-.6,7-.6,4,0,7.2.5,9.7,1.5,2.5,1,4.4,2.5,5.6,4.5,1.2,2,1.8,4.5,1.8,7.5v16.1c0,1.4.2,2.3.6,2.8.4.5.9.7,1.6.7s.5,0,.9,0c.3,0,.6-.1.9-.3l.9,7.2c-.9.5-1.9,1-3,1.3-1.1.3-2.2.4-3.5.4-1.9,0-3.5-.4-4.8-1.2-1.2-.8-2.1-2.1-2.6-3.8-1.2.9-2.5,1.7-3.9,2.5-1.4.8-2.9,1.4-4.5,1.8-1.6.4-3.4.7-5.3.7s-3.1-.2-4.4-.7c-1.3-.5-2.5-1.2-3.4-2.2-.9-1-1.7-2.2-2.2-3.6-.5-1.4-.8-3-.8-4.8ZM-943.7,201.7c0,1.8.4,3.1,1.2,3.9.8.8,1.9,1.3,3.3,1.3s2.1-.2,3.1-.5c1-.3,2.1-.8,3.1-1.3,1-.6,1.9-1.2,2.8-2v-8.4c-2.1.1-4,.4-5.7.6-1.7.3-3.1.7-4.3,1.2s-2.1,1.2-2.6,2.1c-.6.9-.9,1.9-.9,3.1Z"/>
        <path class="st3" d="M-903.7,157.8v42.1c0,1.4.2,2.5.5,3.2.3.7.8,1.3,1.4,1.5.6.3,1.2.4,1.9.4s1,0,1.6-.1c.6,0,1.3-.2,2-.4l.9,7.6c-1,.4-2.1.8-3.4,1.1-1.3.3-2.6.4-3.9.4-2.3,0-4.3-.4-5.9-1.2-1.6-.8-2.8-2.1-3.6-4-.8-1.9-1.3-4.4-1.3-7.7v-42.9h9.9Z"/>
        <path class="st3" d="M-874.9,212.9v-52.1h35.7v8.9h-25.5v12.1h23.6v8.8h-23.6v13.4h26.8v8.9h-37.1Z"/>
        <path class="st3" d="M-834.1,212.9v-40.3h9v3.5c1.7-1,3.3-1.8,4.7-2.4,1.5-.6,2.9-1.1,4.4-1.4,1.5-.3,3-.5,4.7-.5,2.6,0,4.7.4,6.4,1.3,1.7.9,3,2.2,3.9,3.9s1.3,3.7,1.3,6.1v29.7h-9.9v-26.6c0-2-.5-3.6-1.5-4.6-1-1-2.5-1.5-4.4-1.5s-1.9,0-2.9.3c-1,.2-1.9.5-2.9.9-.9.4-1.9.8-3,1.4v30.1h-9.9Z"/>
        <path class="st3" d="M-784,212.9l-14.3-40.1,10.4-.3,9.9,31.6,9.3-31.6,10.3.3-14.5,40.1h-11.1Z"/>
        <path class="st3" d="M-750.7,166.9c-2,0-3.5-.4-4.5-1.2-.9-.8-1.4-2.1-1.4-3.9s.5-3.1,1.4-3.9c.9-.8,2.4-1.2,4.5-1.2s3.6.4,4.5,1.2c.9.8,1.3,2.1,1.3,3.9s-.4,3.1-1.3,3.9c-.9.8-2.4,1.2-4.5,1.2ZM-755.7,212.9v-40.3h9.9v40.3h-9.9Z"/>
        <path class="st3" d="M-730.9,172.6v4.8c1.4-1.3,2.8-2.4,3.9-3.2,1.2-.8,2.4-1.4,3.6-1.8,1.2-.4,2.6-.6,4.1-.6s1.7,0,2.6.2c.9.1,1.9.3,2.8.6l-1.6,9.1c-.8-.2-1.7-.4-2.7-.6-.9-.1-1.8-.2-2.6-.2-1.4,0-2.9.3-4.4.8-1.5.5-3.1,1.5-4.8,2.8v28.3h-9.9v-40.3h9Z"/>
        <path class="st3" d="M-715.3,192.7c0-3.4.3-6.3,1-8.9.6-2.6,1.7-4.7,3.1-6.5,1.4-1.8,3.3-3.1,5.7-4,2.4-.9,5.4-1.3,9-1.3s6.6.4,9,1.3c2.4.9,4.4,2.2,5.8,4,1.4,1.8,2.5,4,3.1,6.5.6,2.6.9,5.5.9,8.9s-.3,6.5-1,9.1c-.7,2.6-1.7,4.8-3.2,6.5-1.5,1.8-3.4,3.1-5.8,4-2.4.9-5.3,1.3-8.8,1.3s-6.3-.4-8.7-1.3-4.3-2.2-5.8-4c-1.5-1.8-2.5-3.9-3.2-6.5-.7-2.6-1-5.6-1-9.1ZM-705.1,192.7c0,3.4.3,6,.9,8,.6,2,1.5,3.4,2.8,4.2,1.3.8,3,1.3,4.9,1.3s3.7-.4,5-1.3c1.2-.8,2.2-2.2,2.8-4.2.6-2,.9-4.6.9-8s-.3-5.9-.9-7.8c-.6-1.9-1.5-3.3-2.8-4.1-1.3-.8-3-1.2-5.1-1.2s-3.9.4-5.1,1.2c-1.2.8-2.1,2.2-2.7,4.1-.5,1.9-.8,4.5-.8,7.8Z"/>
        <path class="st3" d="M-673.4,212.9v-40.3h9v3.5c1.7-1,3.3-1.8,4.7-2.4,1.5-.6,2.9-1.1,4.4-1.4,1.5-.3,3-.5,4.7-.5,2.6,0,4.7.4,6.4,1.3,1.7.9,3,2.2,3.9,3.9.9,1.7,1.3,3.7,1.3,6.1v29.7h-9.9v-26.6c0-2-.5-3.6-1.5-4.6-1-1-2.5-1.5-4.4-1.5s-1.9,0-2.9.3c-1,.2-1.9.5-2.9.9-.9.4-1.9.8-3,1.4v30.1h-9.9Z"/>
        <path class="st3" d="M-633.2,212.9v-40.3h9v3.5c1.4-.9,2.9-1.7,4.3-2.3,1.4-.6,2.8-1.1,4.2-1.4,1.4-.3,2.8-.5,4.2-.5s2.9.2,4.1.6c1.2.4,2.1.9,2.9,1.5.8.6,1.5,1.5,2,2.5,1.5-.9,3-1.7,4.4-2.4,1.5-.7,3-1.2,4.5-1.6,1.6-.4,3.2-.6,4.9-.6s2.9.2,4,.6c1.1.4,2.1.9,3,1.6.8.7,1.5,1.5,2.1,2.5.6.9,1,2,1.3,3.1.3,1.1.4,2.4.4,3.6v29.6h-10v-26.5c0-.8,0-1.6-.3-2.4s-.4-1.4-.8-1.9c-.4-.5-.9-1-1.6-1.3-.7-.3-1.6-.5-2.6-.5s-1.9.1-2.9.3c-.9.2-1.8.5-2.6.9-.8.4-1.6.8-2.3,1.2.1.5.2,1.1.3,1.6,0,.5,0,1,0,1.4v27.2h-9.9v-26.5c0-.8,0-1.6-.3-2.3-.2-.7-.4-1.4-.8-1.9-.4-.6-.9-1-1.6-1.3-.7-.3-1.6-.5-2.6-.5s-1.7.1-2.6.3c-.9.2-1.7.5-2.5.9-.8.3-1.6.7-2.5,1.2v30.1h-9.9Z"/>
        <path class="st3" d="M-554.7,213.6c-3,0-5.7-.4-8-1.2-2.3-.8-4.3-2-5.9-3.5-1.6-1.6-2.9-3.6-3.7-6.1-.8-2.5-1.2-5.5-1.2-9s.5-7.5,1.5-10.3c1-2.8,2.3-5,4.1-6.7,1.8-1.7,3.8-2.9,6.3-3.7,2.4-.8,5-1.2,7.9-1.2,5.6,0,9.7,1.4,12.4,4.2,2.7,2.8,4,7.5,4,13.9s0,.9,0,1.6c0,.7,0,1.4-.1,2.1-1.1,0-2.5.1-4.4.3-1.8.1-3.8.3-6.1.4s-4.6.3-7.2.4c-2.6.1-5.2.2-8,.2,0,.2,0,.5,0,.7v.5c0,2.3.4,4.1,1.1,5.5.7,1.4,1.9,2.4,3.5,3.1,1.6.7,3.5,1,5.8,1s3.1,0,4.6-.3c1.5-.2,3.1-.4,4.7-.7,1.6-.3,3.1-.6,4.6-.9l1.2,7.2c-1.5.5-3.2,1-5.1,1.4-1.8.4-3.7.6-5.6.8-1.9.2-3.9.3-6.2.3ZM-563.2,188.8c1.7,0,3.4,0,5.1-.1,1.6,0,3.2-.2,4.6-.3,1.4,0,2.7-.2,3.7-.2,1,0,1.8,0,2.3-.1,0-2.2-.3-4-.8-5.3-.5-1.3-1.3-2.2-2.4-2.8s-2.4-.9-3.9-.9-2,.1-2.9.4c-.9.3-1.8.8-2.6,1.5-.8.7-1.4,1.7-2,3-.5,1.3-.9,2.9-1.1,4.8Z"/>
        <path class="st3" d="M-533.2,212.9v-40.3h9v3.5c1.7-1,3.3-1.8,4.7-2.4,1.5-.6,2.9-1.1,4.4-1.4,1.5-.3,3-.5,4.7-.5,2.6,0,4.7.4,6.4,1.3,1.7.9,3,2.2,3.9,3.9.9,1.7,1.3,3.7,1.3,6.1v29.7h-9.9v-26.6c0-2-.5-3.6-1.5-4.6-1-1-2.5-1.5-4.4-1.5s-1.9,0-2.9.3c-1,.2-1.9.5-2.9.9s-1.9.8-3,1.4v30.1h-9.9Z"/>
        <path class="st3" d="M-478.5,213.6c-2.5,0-4.7-.5-6.4-1.5-1.8-1-3.1-2.5-3.9-4.5-.9-2-1.3-4.7-1.3-7.9v-19.9h-6.2v-6.5l6.2-.7,1.3-8.9h8.6v8.9h11.5v7.2h-11.5v19.1c0,2.3.4,3.9,1.3,4.9.8,1,2.2,1.5,4.1,1.5s2,0,3-.3c1-.2,2.1-.5,3.2-.8l1.3,7.6c-2,.7-3.9,1.2-5.8,1.5-1.9.3-3.6.4-5.3.4Z"/>
        <path class="st3" d="M-467.3,202.4c0-2.5.5-4.5,1.4-6.1.9-1.6,2.4-2.8,4.4-3.7,2-.9,4.4-1.6,7.4-2.1,2.9-.5,6.4-.9,10.5-1.3v-3.8c0-1.7-.7-3-2-3.9-1.4-.9-3.3-1.3-5.8-1.3s-2.1,0-3.5.1c-1.3.1-2.7.3-4,.5-1.4.2-2.8.6-4.4,1.1l-1.6-8c2.2-.7,4.6-1.2,7.1-1.6,2.5-.4,4.9-.6,7-.6,4,0,7.2.5,9.7,1.5,2.5,1,4.4,2.5,5.6,4.5,1.2,2,1.8,4.5,1.8,7.5v16.1c0,1.4.2,2.3.6,2.8.4.5.9.7,1.6.7s.5,0,.9,0c.3,0,.6-.1.9-.3l.9,7.2c-.9.5-1.9,1-3,1.3-1.1.3-2.2.4-3.5.4-1.9,0-3.5-.4-4.8-1.2-1.2-.8-2.1-2.1-2.6-3.8-1.2.9-2.5,1.7-3.9,2.5-1.4.8-2.9,1.4-4.5,1.8s-3.4.7-5.3.7-3.1-.2-4.4-.7c-1.3-.5-2.5-1.2-3.4-2.2-.9-1-1.6-2.2-2.2-3.6-.5-1.4-.8-3-.8-4.8ZM-457.2,201.7c0,1.8.4,3.1,1.2,3.9.8.8,1.9,1.3,3.3,1.3s2.1-.2,3.1-.5c1-.3,2.1-.8,3.1-1.3,1-.6,1.9-1.2,2.8-2v-8.4c-2.1.1-4,.4-5.7.6-1.7.3-3.1.7-4.3,1.2-1.2.5-2.1,1.2-2.6,2.1-.6.9-.9,1.9-.9,3.1Z"/>
        <path class="st3" d="M-417.2,157.8v42.1c0,1.4.2,2.5.5,3.2.3.7.8,1.3,1.4,1.5.6.3,1.2.4,1.9.4s1,0,1.6-.1c.6,0,1.3-.2,2-.4l.9,7.6c-1,.4-2.1.8-3.4,1.1-1.3.3-2.6.4-3.9.4-2.3,0-4.3-.4-5.9-1.2-1.6-.8-2.8-2.1-3.6-4-.8-1.9-1.3-4.4-1.3-7.7v-42.9h9.9Z"/>
      </g>
    </g>
  </g>
  <rect class="st3" x="-1940" y="540" width="1920" height="540"/>
  <g>
    <g>
      <g>
        <path class="st5" d="M-1183.3,814.7c3.6-12.7,5.6-26,5.6-39.8,0-80.3-65.1-145.4-145.4-145.4s-145.4,65.1-145.4,145.4,2,27.2,5.6,39.8h279.7Z"/>
        <path class="st5" d="M-1546.9,779.4c61.2-37.2,137.2-49,210.8-25.4,53.7,17.2,97.7,50.6,128.5,93,12.9-8,25.1-17.1,36.4-27.2-40.1-55-101.9-94.1-174.8-103.2-76.6-9.7-149.8,15.8-203.1,63.7"/>
        <path class="st5" d="M-1422.5,946.7c-.3,4.6-.4,9.3-.4,13.9,25.9,12.7,54.7,20.6,85.3,22.5,124.4,7.7,231.5-86.9,239.3-211.3.3-4.7.4-9.3.4-13.9-25.9-12.7-54.7-20.6-85.3-22.5-124.4-7.7-231.5,86.9-239.3,211.3Z"/>
        <path class="st5" d="M-1549.1,780.2c10.9,108.1,98.7,195.5,210.6,202.4,48.1,3,93.6-9.3,131.8-32.8-10.9-108.1-98.7-195.5-210.6-202.4-48.1-3-93.6,9.3-131.8,32.8Z"/>
      </g>
      <g>
        <g>
          <path class="st11" d="M-1183.3,814.7c3.6-12.7,5.6-26,5.6-39.8,0-80.3-65.1-145.4-145.4-145.4s-145.4,65.1-145.4,145.4,2,27.2,5.6,39.8h279.7Z"/>
          <path class="st9" d="M-1188.4,814.7c3.9-12.2,6-25.1,6-38.6,0-69.8-56.6-126.4-126.4-126.4s-126.4,56.6-126.4,126.4,2.1,26.4,6,38.6h240.8Z"/>
        </g>
        <path class="st8" d="M-1546.9,779.4c61.2-37.2,137.2-49,210.8-25.4,53.7,17.2,97.7,50.6,128.5,93,12.9-8,25.1-17.1,36.4-27.2-40.1-55-101.9-94.1-174.8-103.2-76.6-9.7-149.8,15.8-203.1,63.7"/>
        <path class="st2" d="M-1542.6,779.2c64.2-31.7,136.8-36.7,208-6.8,52,21.8,93,58.9,120,103.8,13.5-6.8,26.5-14.9,38.6-24-35.2-58.3-93.4-102.5-165.2-118-75.5-16.3-145.9,2.9-203.1,45.9"/>
        <path class="st7" d="M-1422.5,946.7c-.3,4.6-.4,9.3-.4,13.9,25.9,12.7,54.7,20.6,85.3,22.5,124.4,7.7,231.5-86.9,239.3-211.3.3-4.7.4-9.3.4-13.9-25.9-12.7-54.7-20.6-85.3-22.5-124.4-7.7-231.5,86.9-239.3,211.3Z"/>
        <path class="st6" d="M-1405.9,939.2c-.3,4.2-.4,8.3-.4,12.4,23.3,11.4,49.1,18.5,76.6,20.2,111.7,6.9,207.9-78,214.8-189.7.3-4.2.4-8.3.4-12.5-23.3-11.4-49.1-18.5-76.6-20.2-111.7-6.9-207.9,78-214.8,189.7Z"/>
        <path class="st10" d="M-1345.7,831.8c1.7.6,3.4,1.2,5.1,1.8,16.3-8.1,34-14,53-17.3,35.3-6.2,70.5-2.6,103.3,8.8,3.6-1.7,7.2-3.6,10.7-5.5-34.6-12.4-71.9-16.4-109.3-9.8-22.7,4-43.8,11.6-62.8,22.1ZM-1269.1,790.7c-32.6,5.7-61.7,18.8-86.3,37.4,1.2.5,2.4,1,3.6,1.4,22.6-15.9,48.9-27.2,78-32.3,39.5-6.9,79-1.6,115,13.2,3-2,5.9-4.1,8.7-6.2-37.2-15.3-78.1-20.8-119-13.6ZM-1255.4,771.6c-41.6,7.3-77.6,26.6-105.6,54.1.9.4,1.8.8,2.7,1.2,26.5-24.7,59.9-42,98.2-48.7,42-7.4,84.2-.9,121.9,16.3,2.5-2.2,4.9-4.5,7.3-6.8-38.7-17.1-81.7-23.5-124.6-16ZM-1328.9,837.1c3,.8,6.1,1.6,9.1,2.3,6-1.6,12.1-3,18.4-4.1,27.8-4.9,55.6-3.7,82.2,2.6,5-1.4,10-2.9,15-4.6-29.7-8.1-61.1-10.1-92.5-4.6-11.1,1.9-21.9,4.8-32.1,8.4ZM-1241.6,752.6c-50.2,8.5-92.2,35.1-121.9,72,.7.3,1.5.6,2.2,1,28.5-34,68.1-58.2,115-66.4,43.4-7.6,86.8-.5,125.5,17.9,2.1-2.4,4.2-4.9,6.2-7.4-39.1-19.5-77.7-25.4-127.1-17.1Z"/>
        <g>
          <path class="st3" d="M-1549.1,780.2c10.9,108.1,98.7,195.5,210.6,202.4,48.1,3,93.6-9.3,131.8-32.8-10.9-108.1-98.7-195.5-210.6-202.4-48.1-3-93.6,9.3-131.8,32.8Z"/>
          <path class="st12" d="M-1513.9,797.6c8.6,85.9,78.4,155.3,167.3,160.8,38.2,2.4,74.4-7.4,104.7-26-8.6-85.9-78.4-155.3-167.3-160.8-38.2-2.4-74.4,7.4-104.7,26Z"/>
          <path class="st12" d="M-1531.8,787.8c9.7,96.5,88.1,174.6,188.1,180.8,43,2.7,83.6-8.3,117.7-29.3-9.7-96.5-88.1-174.6-188.1-180.8-43-2.7-83.6,8.3-117.7,29.3Z"/>
          <path class="st1" d="M-1394.1,832.9s120.8,21.6,156.5,112.9c2.3,5.8-100.3,50.6-191.6-1.7-32-18.4-67.8-49.4-87-96.8-.7.4,56-23.9,122.1-14.4Z"/>
          <path class="st3" d="M-1226,928.9s-35.2-78-168.1-95.9c2.9,2.1,123.2,27.7,156,114.1,2.2-.9,12.1-6,12.1-6v-12.3Z"/>
        </g>
      </g>
    </g>
    <g>
      <g>
        <path class="st11" d="M-950.7,887.4c-3.6,0-7.2-.4-10.8-1.2-3.6-.8-7.2-2.1-10.8-3.9-3.6-1.8-7.2-4.1-10.8-7-3.6-2.9-7.3-6.4-11-10.5-3.7-4.1-7.5-8.9-11.4-14.3h-9.4v35.2h-32.9v-113.6c7-.3,13.5-.6,19.3-.8,5.8-.2,11.2-.4,16.1-.5,4.9-.1,9.2-.2,13-.2,9.2,0,17.1.7,23.7,2.1,6.6,1.4,12,3.6,16.1,6.5,4.2,2.9,7.2,6.7,9.2,11.3,1.9,4.6,2.9,10,2.9,16.1s-1,11.7-2.9,16.3c-1.9,4.6-4.7,8.4-8.1,11.3-3.5,2.9-7.6,5.1-12.3,6.7,2.3,2.5,4.5,4.7,6.7,6.5,2.2,1.8,4.3,3.4,6.3,4.5,2,1.2,3.9,2.1,5.8,2.7,1.9.6,3.8.9,5.6.9s.9,0,1.4,0c.5,0,.9,0,1.4,0v31.3c-.8.1-1.7.2-2.8.4-1.1.2-2.5.2-4.1.2ZM-999.4,828c3.1,0,5.8-.3,8-1,2.2-.6,4.1-1.6,5.5-3,1.5-1.4,2.5-3.1,3.2-5.2.7-2.1,1.1-4.7,1.1-7.7s-.5-6.5-1.5-8.7c-1-2.2-2.7-3.8-5.3-4.9-2.5-1-6-1.5-10.5-1.5h-3.9c-1.1,0-2.2,0-3.3,0-1.1,0-2.4.1-3.8.2-1.4,0-3.1.2-5.2.4v30.8c1.4.1,2.6.2,3.7.2,1.1,0,2.2.1,3.3.2,1.1,0,2.4,0,3.7,0h4.8Z"/>
        <path class="st11" d="M-892.5,887.4c-7.2,0-13.7-.8-19.3-2.4-5.6-1.6-10.4-4.2-14.3-7.8-3.9-3.6-6.9-8.2-8.9-13.9-2.1-5.7-3.1-12.5-3.1-20.4s1.1-15.9,3.3-22c2.2-6.1,5.4-11,9.5-14.8,4.1-3.7,9-6.5,14.6-8.2,5.6-1.7,11.8-2.6,18.5-2.6,13.6,0,23.7,3.3,30.1,9.9,6.4,6.6,9.7,17.3,9.7,32.1s0,2.7,0,4.6c0,1.9-.1,3.7-.2,5.3-2.9.2-6.4.5-10.3.8-4,.3-8.2.6-12.8,1-4.6.3-9.4.6-14.4.9-5,.3-10,.5-15.1.7v1.5c.1,2.3.7,4.2,1.9,5.8,1.1,1.6,3.1,2.8,5.8,3.6,2.8.8,6.4,1.2,11,1.2s6-.2,9.2-.5c3.2-.3,6.6-.8,10.1-1.4,3.5-.6,7.1-1.3,10.6-2l3.7,22.7c-4.1,1.4-8.3,2.5-12.4,3.3-4.2.8-8.5,1.4-12.9,1.9-4.4.4-9.2.6-14.3.6ZM-905.1,832.9c1.9,0,3.9,0,5.8-.2,1.9-.1,3.9-.2,5.8-.2,1.9,0,3.6-.1,5.3-.2,1.6-.1,3-.2,4.2-.2-.1-3.8-.5-6.7-1.3-8.8-.8-2.1-1.8-3.6-3.2-4.5-1.4-.9-3.2-1.3-5.4-1.3s-2.7.2-4,.6c-1.2.4-2.4,1.2-3.3,2.4s-1.8,2.7-2.4,4.7c-.6,2-1.1,4.6-1.5,7.7Z"/>
        <path class="st11" d="M-807.3,921.5c-13.2,0-23.2-1.8-30-5.4-6.8-3.6-10.2-9.1-10.2-16.5s.5-5.7,1.5-8.1c1-2.4,2.6-4.5,4.7-6.4,2.1-1.9,4.7-3.4,7.9-4.6l14.9,5.7c-1,.5-1.8,1.1-2.5,1.7-.7.6-1.2,1.2-1.6,1.9-.4.7-.6,1.5-.6,2.5,0,1.7.5,3.1,1.6,4.1,1.1,1,2.9,1.7,5.6,2.2,2.6.5,6.3.7,11,.7s7.9-.3,10.9-.8c2.9-.5,5.1-1.3,6.6-2.3,1.5-1,2.2-2.2,2.2-3.7s-.2-1.9-.6-2.5c-.4-.6-1.4-1-2.8-1.3-1.5-.3-3.6-.4-6.4-.4h-16.4c-6.5,0-12.2-.7-17-2.2-4.9-1.5-8.6-3.7-11.3-6.7-2.7-3-4-6.8-4-11.4s1.3-8.7,3.8-11.9c2.5-3.2,5.8-5.9,9.8-8l15.6,3.9c-1.7,1.1-3,2.1-3.9,3.2-.9,1-1.3,2.3-1.3,3.8s.6,2.8,1.9,3.7c1.2.8,3.1,1.2,5.6,1.2h28.1c9.1,0,16.2,2.2,21.3,6.6,5.1,4.4,7.6,10.5,7.6,18.3s-1.9,13-5.8,17.9c-3.9,4.9-9.7,8.7-17.3,11.2-7.6,2.5-17.2,3.8-28.6,3.8ZM-804,857.1c-13.1,0-23-2.6-29.6-7.8-6.7-5.2-10-12.9-10-23s3.3-18,10-23.1c6.7-5.1,16.5-7.7,29.6-7.7s23.1,2.6,29.7,7.7c6.6,5.1,9.9,12.8,9.9,23.1s-3.3,17.8-9.9,23c-6.6,5.2-16.5,7.8-29.7,7.8ZM-804,837.5c3.4,0,5.8-.8,7.4-2.4,1.6-1.6,2.4-4.5,2.4-8.8s-.8-7.4-2.4-9c-1.6-1.6-4-2.4-7.4-2.4s-5.7.8-7.2,2.4c-1.6,1.6-2.4,4.6-2.4,9s.8,7.3,2.4,8.8c1.6,1.6,4,2.4,7.2,2.4ZM-769.3,819.4l-11.8-16.1c1.5-4.2,3.9-7.4,7.1-9.4,3.2-2.1,7.2-3.1,12.1-3.1s3.4.1,5,.3c1.6.2,3,.6,4.2,1.1l-3.6,23.9c-1-.2-2-.4-3-.6-1-.2-2.1-.2-3.3-.2s-2.5.3-3.7,1c-1.2.6-2.2,1.7-2.9,3.1Z"/>
        <path class="st11" d="M-730.2,791c-6.4,0-11.1-1.3-14.1-4-3-2.6-4.5-6.6-4.5-11.8s1.5-9.4,4.5-12c3-2.6,7.7-3.9,14.1-3.9s11.2,1.3,14.2,3.9c3,2.6,4.5,6.6,4.5,12s-1.5,9.1-4.4,11.8c-2.9,2.7-7.7,4-14.3,4ZM-746.1,885.8v-88.8h31.8v88.8h-31.8Z"/>
        <path class="st11" d="M-704.9,882.6l3.2-22.7c2.1.6,4.4,1.2,7.1,1.8,2.6.5,5.4,1,8.2,1.5,2.8.4,5.6.8,8.3,1,2.7.2,5.1.3,7.3.3,3.4,0,5.8-.4,7.3-1.2s2.3-2,2.3-3.5-.6-2.1-1.7-2.8c-1.1-.6-2.7-1.2-4.7-1.7-2-.5-4.3-.9-6.9-1.4-2.6-.4-5.4-1-8.4-1.8-3.5-.8-6.5-1.8-9.2-3.2-2.7-1.4-4.9-3.2-6.7-5.4-1.8-2.2-3.2-4.6-4-7.5-.8-2.8-1.2-6-1.2-9.6,0-10.6,3.2-18.4,9.7-23.4,6.4-5,16-7.5,28.8-7.5s7.8.2,11.3.6c3.5.4,6.9,1,10.1,1.6,3.2.6,6.2,1.5,9,2.4l-3.7,23c-2.6-.9-5.2-1.6-7.9-2.2-2.7-.6-5.5-1.1-8.4-1.4-3-.3-6.4-.5-10.3-.5s-5,.3-6.6,1c-1.6.6-2.4,1.8-2.4,3.4s.3,1.7,1,2.3c.6.5,1.7,1,3.1,1.4,1.4.4,3.2.8,5.3,1.1,2.1.4,4.6.8,7.4,1.2,3.9.6,7.5,1.6,10.7,2.8,3.2,1.2,6.1,2.9,8.6,4.9,2.5,2,4.4,4.6,5.8,7.8,1.4,3.2,2,7.1,2,11.6s-.7,8.9-2.1,12.3c-1.4,3.5-3.4,6.4-5.9,8.8-2.5,2.4-5.5,4.3-8.9,5.7-3.4,1.4-7.1,2.4-11.2,3.1-4.1.6-8.2,1-12.6,1s-7.7-.2-11.5-.5c-3.8-.3-7.5-.9-11-1.6-3.6-.8-7.2-1.7-10.9-2.8Z"/>
        <path class="st11" d="M-589.5,887.4c-6.1,0-11.2-1.2-15.4-3.5-4.2-2.3-7.4-6-9.6-11-2.2-5-3.2-11.5-3.2-19.6v-33.4h-11.7v-21.1l11.7-1.8,3.7-18.2h28.1v18.2h19.5v22.9h-19.5v30.8c0,3.8.6,6.4,1.9,7.7,1.3,1.4,3.2,2,5.8,2s3.2-.2,5-.5c1.8-.3,3.9-.7,6.2-1.1l4.2,24.2c-4.7,1.6-9.2,2.8-13.7,3.4s-8.8,1-13.1,1Z"/>
        <path class="st11" d="M-526.6,797v10.1c3-2.8,5.7-5.1,8.1-6.8,2.4-1.7,4.8-3,7.2-3.7,2.4-.8,5.2-1.1,8.2-1.1s3.4.1,5.2.4c1.8.3,3.8.7,5.8,1.4l-5,28.9c-1.9-.5-3.9-.9-5.8-1.1-1.9-.2-3.6-.3-5.3-.3-2.4,0-4.8.3-7.3.9-2.5.6-5.2,1.8-8.1,3.7v56.6h-31.8v-88.8h28.7Z"/>
        <path class="st11" d="M-464.9,919.9l10.9-34.1h-3.6l-32.3-88.8,35.1-.2,15.3,63.6,15.3-63.6,33.6.2-40.2,123-33.9-.2Z"/>
      </g>
      <g>
        <path class="st4" d="M-1005.6,748.4c-1.4,0-2.8-.2-4.2-.7-1.4-.5-2.8-1.2-4.3-2.2-1.4-1-2.9-2.2-4.4-3.7-1.5-1.5-3-3.3-4.7-5.4-1.7-2.1-3.4-4.5-5.2-7.2-.4,0-.9,0-1.6,0h-4.6c-1,0-2.1,0-3.2,0v18.4h-10.3v-52.2c2.7-.1,5.1-.3,7.3-.4,2.2,0,4.3-.2,6.2-.2,1.9,0,3.7,0,5.5,0,4,0,7.4.3,10.2.9,2.9.6,5.2,1.5,6.9,2.8,1.8,1.2,3.1,2.9,3.9,4.9.8,2,1.2,4.5,1.2,7.3s-.4,5.5-1.3,7.7c-.9,2.1-2.2,3.9-3.9,5.2-1.7,1.3-3.7,2.3-6.2,3.1,1.5,2.1,2.9,3.8,4.2,5.3,1.3,1.4,2.6,2.7,3.7,3.6,1.1,1,2.2,1.7,3.1,2.2.9.5,1.8.7,2.7.7s.3,0,.6,0c.2,0,.4,0,.6,0v9.8c-.1,0-.5,0-.9.1-.4,0-.9,0-1.5,0ZM-1029.3,721.1c2,0,3.8-.1,5.3-.4,1.6-.3,2.8-.8,3.8-1.5,1-.7,1.7-1.6,2.2-2.8.5-1.1.7-2.6.7-4.4s-.3-3.9-1-5.3c-.7-1.3-1.9-2.3-3.5-2.9-1.7-.6-4-.9-7-.9h-2.2c-.6,0-1.3,0-1.9,0-.6,0-1.3,0-2,0-.7,0-1.6,0-2.7.2v17.6c.8,0,1.6,0,2.3.1.7,0,1.4,0,2,0,.7,0,1.4,0,2,0h2Z"/>
        <path class="st4" d="M-989.2,748.4c-2.3,0-4.4-.4-6.1-1.3s-3.1-2.1-4-3.9c-1-1.7-1.5-3.9-1.5-6.5v-29.3h9.9v27.1c0,1.8.5,3.2,1.5,4.2,1,1,2.3,1.5,4.1,1.5s2,0,2.9-.3c.9-.2,1.8-.5,2.7-.9.9-.4,1.9-.8,2.9-1.3v-30.2h9.8v29.2c0,.8,0,1.5.3,2,.2.5.5.9.8,1.1.3.2.7.3,1.1.3.6,0,1.2-.1,1.8-.4l.9,7.1c-.6.3-1.3.6-2,.9-.7.2-1.5.4-2.3.6-.8.1-1.6.2-2.5.2-1.6,0-3-.3-4.2-1-1.2-.7-2-1.7-2.6-3.1-1.4.8-2.9,1.5-4.3,2.2-1.4.7-2.9,1.2-4.4,1.5-1.5.3-3.1.5-4.8.5Z"/>
        <path class="st4" d="M-950.9,707.4v4.8c1.4-1.3,2.8-2.4,3.9-3.2,1.2-.8,2.4-1.4,3.6-1.8,1.2-.4,2.6-.6,4.1-.6s1.7,0,2.6.2c.9.1,1.9.3,2.8.6l-1.6,9.1c-.8-.2-1.7-.4-2.7-.6-.9-.1-1.8-.2-2.6-.2-1.4,0-2.9.3-4.4.8-1.5.5-3.1,1.5-4.8,2.8v28.3h-9.9v-40.3h9Z"/>
        <path class="st4" d="M-935.7,737.1c0-2.5.5-4.5,1.4-6.1.9-1.6,2.4-2.8,4.4-3.7,2-.9,4.4-1.6,7.4-2.1,3-.5,6.4-.9,10.5-1.3v-3.8c0-1.7-.7-3-2-3.9-1.4-.9-3.3-1.3-5.8-1.3s-2.1,0-3.5.1c-1.3.1-2.7.3-4,.5-1.4.2-2.8.6-4.4,1.1l-1.6-8c2.2-.7,4.6-1.2,7.1-1.6,2.5-.4,4.9-.6,7-.6,4,0,7.2.5,9.7,1.5,2.5,1,4.4,2.5,5.6,4.5,1.2,2,1.8,4.5,1.8,7.5v16.1c0,1.4.2,2.3.6,2.8.4.5.9.7,1.6.7s.5,0,.9,0c.3,0,.6-.1.9-.3l.9,7.2c-.9.5-1.9,1-3,1.3-1.1.3-2.2.4-3.5.4-1.9,0-3.5-.4-4.8-1.2-1.2-.8-2.1-2.1-2.6-3.8-1.2.9-2.5,1.7-3.9,2.5-1.4.8-2.9,1.4-4.5,1.8-1.6.4-3.4.7-5.3.7s-3.1-.2-4.4-.7c-1.3-.5-2.5-1.2-3.4-2.2-.9-1-1.7-2.2-2.2-3.6-.5-1.4-.8-3-.8-4.8ZM-925.6,736.4c0,1.8.4,3.1,1.2,3.9.8.8,1.9,1.3,3.3,1.3s2.1-.2,3.1-.5c1-.3,2.1-.8,3.1-1.3,1-.6,1.9-1.2,2.8-2v-8.4c-2.1.1-4,.4-5.7.6-1.7.3-3.1.7-4.3,1.2s-2.1,1.2-2.6,2.1c-.6.9-.9,1.9-.9,3.1Z"/>
        <path class="st4" d="M-885.5,692.6v42.1c0,1.4.2,2.5.5,3.2.3.7.8,1.3,1.4,1.5.6.3,1.2.4,1.9.4s1,0,1.6-.1c.6,0,1.3-.2,2-.4l.9,7.6c-1,.4-2.1.8-3.4,1.1-1.3.3-2.6.4-3.9.4-2.3,0-4.3-.4-5.9-1.2-1.6-.8-2.8-2.1-3.6-4-.8-1.9-1.3-4.4-1.3-7.7v-42.9h9.9Z"/>
        <path class="st4" d="M-856.7,747.6v-52.1h35.7v8.9h-25.5v12.1h23.6v8.8h-23.6v13.4h26.8v8.9h-37.1Z"/>
        <path class="st4" d="M-815.9,747.6v-40.3h9v3.5c1.7-1,3.3-1.8,4.7-2.4,1.5-.6,2.9-1.1,4.4-1.4,1.5-.3,3-.5,4.7-.5,2.6,0,4.7.4,6.4,1.3,1.7.9,3,2.2,3.9,3.9s1.3,3.7,1.3,6.1v29.7h-9.9v-26.6c0-2-.5-3.6-1.5-4.6-1-1-2.5-1.5-4.4-1.5s-1.9,0-2.9.3c-1,.2-1.9.5-2.9.9-.9.4-1.9.8-3,1.4v30.1h-9.9Z"/>
        <path class="st4" d="M-765.8,747.6l-14.3-40.1,10.4-.3,9.9,31.6,9.3-31.6,10.3.3-14.5,40.1h-11.1Z"/>
        <path class="st4" d="M-732.5,701.6c-2,0-3.5-.4-4.5-1.2-.9-.8-1.4-2.1-1.4-3.9s.5-3.1,1.4-3.9c.9-.8,2.4-1.2,4.5-1.2s3.6.4,4.5,1.2c.9.8,1.3,2.1,1.3,3.9s-.4,3.1-1.3,3.9c-.9.8-2.4,1.2-4.5,1.2ZM-737.5,747.6v-40.3h9.9v40.3h-9.9Z"/>
        <path class="st4" d="M-712.7,707.4v4.8c1.4-1.3,2.8-2.4,3.9-3.2,1.2-.8,2.4-1.4,3.6-1.8,1.2-.4,2.6-.6,4.1-.6s1.7,0,2.6.2c.9.1,1.9.3,2.8.6l-1.6,9.1c-.8-.2-1.7-.4-2.7-.6-.9-.1-1.8-.2-2.6-.2-1.4,0-2.9.3-4.4.8-1.5.5-3.1,1.5-4.8,2.8v28.3h-9.9v-40.3h9Z"/>
        <path class="st4" d="M-697.1,727.4c0-3.4.3-6.3,1-8.9.6-2.6,1.7-4.7,3.1-6.5,1.4-1.8,3.3-3.1,5.7-4,2.4-.9,5.4-1.3,9-1.3s6.6.4,9,1.3c2.4.9,4.4,2.2,5.8,4,1.4,1.8,2.5,4,3.1,6.5.6,2.6.9,5.5.9,8.9s-.3,6.5-1,9.1c-.7,2.6-1.7,4.8-3.2,6.5-1.5,1.8-3.4,3.1-5.8,4s-5.3,1.3-8.8,1.3-6.3-.4-8.7-1.3-4.3-2.2-5.8-4c-1.5-1.8-2.5-3.9-3.2-6.5-.7-2.6-1-5.6-1-9.1ZM-687,727.4c0,3.4.3,6,.9,8,.6,2,1.5,3.4,2.8,4.2,1.3.8,3,1.3,4.9,1.3s3.7-.4,5-1.3c1.2-.8,2.2-2.2,2.8-4.2.6-2,.9-4.6.9-8s-.3-5.9-.9-7.8c-.6-1.9-1.5-3.3-2.8-4.1-1.3-.8-3-1.2-5.1-1.2s-3.9.4-5.1,1.2c-1.2.8-2.1,2.2-2.7,4.1-.5,1.9-.8,4.5-.8,7.8Z"/>
        <path class="st4" d="M-655.2,747.6v-40.3h9v3.5c1.7-1,3.3-1.8,4.7-2.4,1.5-.6,2.9-1.1,4.4-1.4,1.5-.3,3-.5,4.7-.5,2.6,0,4.7.4,6.4,1.3,1.7.9,3,2.2,3.9,3.9s1.3,3.7,1.3,6.1v29.7h-9.9v-26.6c0-2-.5-3.6-1.5-4.6-1-1-2.5-1.5-4.4-1.5s-1.9,0-2.9.3c-1,.2-1.9.5-2.9.9-.9.4-1.9.8-3,1.4v30.1h-9.9Z"/>
        <path class="st4" d="M-615,747.6v-40.3h9v3.5c1.4-.9,2.9-1.7,4.3-2.3,1.4-.6,2.8-1.1,4.2-1.4,1.4-.3,2.8-.5,4.2-.5s2.9.2,4.1.6c1.2.4,2.1.9,2.9,1.5.8.6,1.5,1.5,2,2.5,1.5-.9,3-1.7,4.4-2.4,1.5-.7,3-1.2,4.5-1.6,1.6-.4,3.2-.6,4.9-.6s2.9.2,4,.6c1.1.4,2.1.9,3,1.6.8.7,1.5,1.5,2.1,2.5.6.9,1,2,1.3,3.1.3,1.1.4,2.4.4,3.6v29.6h-10v-26.5c0-.8,0-1.6-.3-2.4s-.4-1.4-.8-1.9c-.4-.5-.9-1-1.6-1.3-.7-.3-1.6-.5-2.6-.5s-1.9.1-2.9.3c-.9.2-1.8.5-2.6.9-.8.4-1.6.8-2.3,1.2.1.5.2,1.1.3,1.6,0,.5,0,1,0,1.4v27.2h-9.9v-26.5c0-.8,0-1.6-.3-2.3-.2-.7-.4-1.4-.8-1.9-.4-.6-.9-1-1.6-1.3-.7-.3-1.6-.5-2.6-.5s-1.7.1-2.6.3c-.9.2-1.7.5-2.5.9-.8.3-1.6.7-2.5,1.2v30.1h-9.9Z"/>
        <path class="st4" d="M-536.6,748.4c-3,0-5.7-.4-8-1.2-2.3-.8-4.3-2-5.9-3.5-1.6-1.6-2.9-3.6-3.7-6.1-.8-2.5-1.2-5.5-1.2-9s.5-7.5,1.5-10.3c1-2.8,2.3-5,4.1-6.7,1.8-1.7,3.8-2.9,6.3-3.7,2.4-.8,5-1.2,7.9-1.2,5.6,0,9.7,1.4,12.4,4.2,2.7,2.8,4,7.5,4,13.9s0,.9,0,1.6c0,.7,0,1.4-.1,2.1-1.1,0-2.5.1-4.4.3-1.8.1-3.8.3-6.1.4s-4.6.3-7.2.4c-2.6.1-5.2.2-8,.2,0,.2,0,.5,0,.7v.5c0,2.3.4,4.1,1.1,5.5.7,1.4,1.9,2.4,3.5,3.1,1.6.7,3.5,1,5.8,1s3.1,0,4.6-.3c1.5-.2,3.1-.4,4.7-.7,1.6-.3,3.1-.6,4.6-.9l1.2,7.2c-1.5.5-3.2,1-5.1,1.4-1.8.4-3.7.6-5.6.8-1.9.2-3.9.3-6.2.3ZM-545,723.5c1.7,0,3.4,0,5.1-.1,1.6,0,3.2-.2,4.6-.3,1.4,0,2.7-.2,3.7-.2,1,0,1.8,0,2.3-.1,0-2.2-.3-4-.8-5.3-.5-1.3-1.3-2.2-2.4-2.8-1-.6-2.4-.9-3.9-.9s-2,.1-2.9.4c-.9.3-1.8.8-2.6,1.5-.8.7-1.4,1.7-2,3-.5,1.3-.9,2.9-1.1,4.8Z"/>
        <path class="st4" d="M-515,747.6v-40.3h9v3.5c1.7-1,3.3-1.8,4.7-2.4,1.5-.6,2.9-1.1,4.4-1.4,1.5-.3,3-.5,4.7-.5,2.6,0,4.7.4,6.4,1.3,1.7.9,3,2.2,3.9,3.9.9,1.7,1.3,3.7,1.3,6.1v29.7h-9.9v-26.6c0-2-.5-3.6-1.5-4.6-1-1-2.5-1.5-4.4-1.5s-1.9,0-2.9.3c-1,.2-1.9.5-2.9.9s-1.9.8-3,1.4v30.1h-9.9Z"/>
        <path class="st4" d="M-460.3,748.4c-2.5,0-4.7-.5-6.4-1.5-1.8-1-3.1-2.5-3.9-4.5-.9-2-1.3-4.7-1.3-7.9v-19.9h-6.2v-6.5l6.2-.7,1.3-8.9h8.6v8.9h11.5v7.2h-11.5v19.1c0,2.3.4,3.9,1.3,4.9.8,1,2.2,1.5,4.1,1.5s2,0,3-.3c1-.2,2.1-.5,3.2-.8l1.3,7.6c-2,.7-3.9,1.2-5.8,1.5-1.9.3-3.6.4-5.3.4Z"/>
        <path class="st4" d="M-449.2,737.1c0-2.5.5-4.5,1.4-6.1s2.4-2.8,4.4-3.7c2-.9,4.4-1.6,7.4-2.1,2.9-.5,6.4-.9,10.5-1.3v-3.8c0-1.7-.7-3-2-3.9-1.4-.9-3.3-1.3-5.8-1.3s-2.1,0-3.5.1c-1.3.1-2.7.3-4,.5-1.4.2-2.8.6-4.4,1.1l-1.6-8c2.2-.7,4.6-1.2,7.1-1.6,2.5-.4,4.9-.6,7-.6,4,0,7.2.5,9.7,1.5,2.5,1,4.4,2.5,5.6,4.5,1.2,2,1.8,4.5,1.8,7.5v16.1c0,1.4.2,2.3.6,2.8.4.5.9.7,1.6.7s.5,0,.9,0c.3,0,.6-.1.9-.3l.9,7.2c-.9.5-1.9,1-3,1.3-1.1.3-2.2.4-3.5.4-1.9,0-3.5-.4-4.8-1.2-1.2-.8-2.1-2.1-2.6-3.8-1.2.9-2.5,1.7-3.9,2.5-1.4.8-2.9,1.4-4.5,1.8s-3.4.7-5.3.7-3.1-.2-4.4-.7c-1.3-.5-2.5-1.2-3.4-2.2-.9-1-1.6-2.2-2.2-3.6-.5-1.4-.8-3-.8-4.8ZM-439.1,736.4c0,1.8.4,3.1,1.2,3.9.8.8,1.9,1.3,3.3,1.3s2.1-.2,3.1-.5c1-.3,2.1-.8,3.1-1.3,1-.6,1.9-1.2,2.8-2v-8.4c-2.1.1-4,.4-5.7.6-1.7.3-3.1.7-4.3,1.2-1.2.5-2.1,1.2-2.6,2.1-.6.9-.9,1.9-.9,3.1Z"/>
        <path class="st4" d="M-399,692.6v42.1c0,1.4.2,2.5.5,3.2.3.7.8,1.3,1.4,1.5.6.3,1.2.4,1.9.4s1,0,1.6-.1c.6,0,1.3-.2,2-.4l.9,7.6c-1,.4-2.1.8-3.4,1.1-1.3.3-2.6.4-3.9.4-2.3,0-4.3-.4-5.9-1.2-1.6-.8-2.8-2.1-3.6-4-.8-1.9-1.3-4.4-1.3-7.7v-42.9h9.9Z"/>
      </g>
    </g>
  </g>
  <g>
    <g>
      <g>
        <path class="st11" d="M-1184.3-406.4c3.6-12.7,5.6-26,5.6-39.8,0-80.3-65.1-145.4-145.4-145.4s-145.4,65.1-145.4,145.4,2,27.2,5.6,39.8h279.7Z"/>
        <path class="st9" d="M-1189.4-406.4c3.9-12.2,6-25.1,6-38.6,0-69.8-56.6-126.4-126.4-126.4s-126.4,56.6-126.4,126.4,2.1,26.4,6,38.6h240.8Z"/>
      </g>
      <path class="st8" d="M-1547.9-441.6c61.2-37.2,137.2-49,210.8-25.4,53.7,17.2,97.7,50.6,128.5,93,12.9-8,25.1-17.1,36.4-27.2-40.1-55-101.9-94.1-174.8-103.2-76.6-9.7-149.8,15.8-203.1,63.7"/>
      <path class="st2" d="M-1543.6-441.8c64.2-31.7,136.8-36.7,208-6.8,52,21.8,93,58.9,120,103.8,13.5-6.8,26.5-14.9,38.6-24-35.2-58.3-93.4-102.5-165.2-118-75.5-16.3-145.9,2.9-203.1,45.9"/>
      <path class="st7" d="M-1423.5-274.3c-.3,4.6-.4,9.3-.4,13.9,25.9,12.7,54.7,20.6,85.3,22.5,124.4,7.7,231.5-86.9,239.3-211.3.3-4.7.4-9.3.4-13.9-25.9-12.7-54.7-20.6-85.3-22.5-124.4-7.7-231.5,86.9-239.3,211.3Z"/>
      <path class="st6" d="M-1406.9-281.9c-.3,4.2-.4,8.3-.4,12.4,23.3,11.4,49.1,18.5,76.6,20.2,111.7,6.9,207.9-78,214.8-189.7.3-4.2.4-8.3.4-12.5-23.3-11.4-49.1-18.5-76.6-20.2-111.7-6.9-207.9,78-214.8,189.7Z"/>
      <path class="st10" d="M-1346.7-389.2c1.7.6,3.4,1.2,5.1,1.8,16.3-8.1,34-14,53-17.3,35.3-6.2,70.5-2.6,103.3,8.8,3.6-1.7,7.2-3.6,10.7-5.5-34.6-12.4-71.9-16.4-109.3-9.8-22.7,4-43.8,11.6-62.8,22.1ZM-1270.1-430.4c-32.6,5.7-61.7,18.8-86.3,37.4,1.2.5,2.4,1,3.6,1.4,22.6-15.9,48.9-27.2,78-32.3,39.5-6.9,79-1.6,115,13.2,3-2,5.9-4.1,8.7-6.2-37.2-15.3-78.1-20.8-119-13.6ZM-1256.4-449.4c-41.6,7.3-77.6,26.6-105.6,54.1.9.4,1.8.8,2.7,1.2,26.5-24.7,59.9-42,98.2-48.7,42-7.4,84.2-.9,121.9,16.3,2.5-2.2,4.9-4.5,7.3-6.8-38.7-17.1-81.7-23.5-124.6-16ZM-1329.9-383.9c3,.8,6.1,1.6,9.1,2.3,6-1.6,12.1-3,18.4-4.1,27.8-4.9,55.6-3.7,82.2,2.6,5-1.4,10-2.9,15-4.6-29.7-8.1-61.1-10.1-92.5-4.6-11.1,1.9-21.9,4.8-32.1,8.4ZM-1242.6-468.4c-50.2,8.5-92.2,35.1-121.9,72,.7.3,1.5.6,2.2,1,28.5-34,68.1-58.2,115-66.4,43.4-7.6,86.8-.5,125.5,17.9,2.1-2.4,4.2-4.9,6.2-7.4-39.1-19.5-77.7-25.4-127.1-17.1Z"/>
      <g>
        <path class="st3" d="M-1550.1-440.9c10.9,108.1,98.7,195.5,210.6,202.4,48.1,3,93.6-9.3,131.8-32.8-10.9-108.1-98.7-195.5-210.6-202.4-48.1-3-93.6,9.3-131.8,32.8Z"/>
        <path class="st12" d="M-1514.9-423.4c8.6,85.9,78.4,155.3,167.3,160.8,38.2,2.4,74.4-7.4,104.7-26-8.6-85.9-78.4-155.3-167.3-160.8-38.2-2.4-74.4,7.4-104.7,26Z"/>
        <path class="st12" d="M-1532.8-433.3c9.7,96.5,88.1,174.6,188.1,180.8,43,2.7,83.6-8.3,117.7-29.3-9.7-96.5-88.1-174.6-188.1-180.8-43-2.7-83.6,8.3-117.7,29.3Z"/>
        <path class="st1" d="M-1395.1-388.1s120.8,21.6,156.5,112.9c2.3,5.8-100.3,50.6-191.6-1.7-32-18.4-67.8-49.4-87-96.8-.7.4,56-23.9,122.1-14.4Z"/>
        <path class="st3" d="M-1227-292.2s-35.2-78-168.1-95.9c2.9,2.1,123.2,27.7,156,114.1,2.2-.9,12.1-6,12.1-6v-12.3Z"/>
      </g>
    </g>
    <g>
      <g>
        <path class="st1" d="M-969.9-333.6c-3.6,0-7.2-.4-10.8-1.2-3.6-.8-7.2-2.1-10.8-3.9-3.6-1.8-7.2-4.1-10.8-7-3.6-2.9-7.3-6.4-11-10.5-3.7-4.1-7.5-8.9-11.4-14.3h-9.4v35.2h-32.9v-113.6c7-.3,13.5-.6,19.3-.8,5.8-.2,11.2-.4,16.1-.5,4.9-.1,9.2-.2,13-.2,9.2,0,17.1.7,23.7,2.1,6.6,1.4,12,3.6,16.1,6.5,4.2,2.9,7.2,6.7,9.2,11.3,1.9,4.6,2.9,10,2.9,16.1s-1,11.7-2.9,16.3c-1.9,4.6-4.7,8.4-8.1,11.3-3.5,2.9-7.6,5.1-12.3,6.7,2.3,2.5,4.5,4.7,6.7,6.5,2.2,1.8,4.3,3.4,6.3,4.5,2,1.2,3.9,2.1,5.8,2.7,1.9.6,3.8.9,5.6.9s.9,0,1.4,0c.5,0,.9,0,1.4,0v31.3c-.8.1-1.7.2-2.8.4-1.1.2-2.5.2-4.1.2ZM-1018.6-393c3.1,0,5.8-.3,8-1,2.2-.6,4.1-1.6,5.5-3,1.5-1.4,2.5-3.1,3.2-5.2.7-2.1,1.1-4.7,1.1-7.7s-.5-6.5-1.5-8.7c-1-2.2-2.7-3.8-5.3-4.9-2.5-1-6-1.5-10.5-1.5h-3.9c-1.1,0-2.2,0-3.3,0-1.1,0-2.4.1-3.8.2-1.4,0-3.1.2-5.2.4v30.8c1.4.1,2.6.2,3.7.2,1.1,0,2.2.1,3.3.2,1.1,0,2.4,0,3.7,0h4.8Z"/>
        <path class="st1" d="M-911.6-333.6c-7.2,0-13.7-.8-19.3-2.4-5.6-1.6-10.4-4.2-14.3-7.8-3.9-3.6-6.9-8.2-8.9-13.9-2.1-5.7-3.1-12.5-3.1-20.4s1.1-15.9,3.3-22c2.2-6.1,5.4-11,9.5-14.8,4.1-3.7,9-6.5,14.6-8.2,5.6-1.7,11.8-2.6,18.5-2.6,13.6,0,23.7,3.3,30.1,9.9,6.4,6.6,9.7,17.3,9.7,32.1s0,2.7,0,4.6c0,1.9-.1,3.7-.2,5.3-2.9.2-6.4.5-10.3.8-4,.3-8.2.6-12.8,1-4.6.3-9.4.6-14.4.9-5,.3-10,.5-15.1.7v1.5c.1,2.3.7,4.2,1.9,5.8,1.1,1.6,3.1,2.8,5.8,3.6,2.8.8,6.4,1.2,11,1.2s6-.2,9.2-.5c3.2-.3,6.6-.8,10.1-1.4,3.5-.6,7.1-1.3,10.6-2l3.7,22.7c-4.1,1.4-8.3,2.5-12.4,3.3-4.2.8-8.5,1.4-12.9,1.9-4.4.4-9.2.6-14.3.6ZM-924.3-388.1c1.9,0,3.9,0,5.8-.2,1.9-.1,3.9-.2,5.8-.2,1.9,0,3.6-.1,5.3-.2,1.6-.1,3-.2,4.2-.2-.1-3.8-.5-6.7-1.3-8.8-.8-2.1-1.8-3.6-3.2-4.5-1.4-.9-3.2-1.3-5.4-1.3s-2.7.2-4,.6c-1.2.4-2.4,1.2-3.3,2.4s-1.8,2.7-2.4,4.7c-.6,2-1.1,4.6-1.5,7.7Z"/>
        <path class="st1" d="M-826.5-299.5c-13.2,0-23.2-1.8-30-5.4-6.8-3.6-10.2-9.1-10.2-16.5s.5-5.7,1.5-8.1c1-2.4,2.6-4.5,4.7-6.4,2.1-1.9,4.7-3.4,7.9-4.6l14.9,5.7c-1,.5-1.8,1.1-2.5,1.7-.7.6-1.2,1.2-1.6,1.9-.4.7-.6,1.5-.6,2.5,0,1.7.5,3.1,1.6,4.1,1.1,1,2.9,1.7,5.6,2.2,2.6.5,6.3.7,11,.7s7.9-.3,10.9-.8c2.9-.5,5.1-1.3,6.6-2.3,1.5-1,2.2-2.2,2.2-3.7s-.2-1.9-.6-2.5c-.4-.6-1.4-1-2.8-1.3-1.5-.3-3.6-.4-6.4-.4h-16.4c-6.5,0-12.2-.7-17-2.2-4.9-1.5-8.6-3.7-11.3-6.7-2.7-3-4-6.8-4-11.4s1.3-8.7,3.8-11.9c2.5-3.2,5.8-5.9,9.8-8l15.6,3.9c-1.7,1.1-3,2.1-3.9,3.2-.9,1-1.3,2.3-1.3,3.8s.6,2.8,1.9,3.7c1.2.8,3.1,1.2,5.6,1.2h28.1c9.1,0,16.2,2.2,21.3,6.6,5.1,4.4,7.6,10.5,7.6,18.3s-1.9,13-5.8,17.9c-3.9,4.9-9.7,8.7-17.3,11.2-7.6,2.5-17.2,3.8-28.6,3.8ZM-823.2-363.9c-13.1,0-23-2.6-29.6-7.8-6.7-5.2-10-12.9-10-23s3.3-18,10-23.1c6.7-5.1,16.5-7.7,29.6-7.7s23.1,2.6,29.7,7.7c6.6,5.1,9.9,12.8,9.9,23.1s-3.3,17.8-9.9,23c-6.6,5.2-16.5,7.8-29.7,7.8ZM-823.2-383.6c3.4,0,5.8-.8,7.4-2.4,1.6-1.6,2.4-4.5,2.4-8.8s-.8-7.4-2.4-9c-1.6-1.6-4-2.4-7.4-2.4s-5.7.8-7.2,2.4c-1.6,1.6-2.4,4.6-2.4,9s.8,7.3,2.4,8.8c1.6,1.6,4,2.4,7.2,2.4ZM-788.5-401.6l-11.8-16.1c1.5-4.2,3.9-7.4,7.1-9.4,3.2-2.1,7.2-3.1,12.1-3.1s3.4.1,5,.3c1.6.2,3,.6,4.2,1.1l-3.6,23.9c-1-.2-2-.4-3-.6-1-.2-2.1-.2-3.3-.2s-2.5.3-3.7,1c-1.2.6-2.2,1.7-2.9,3.1Z"/>
        <path class="st1" d="M-749.4-430c-6.4,0-11.1-1.3-14.1-4-3-2.6-4.5-6.6-4.5-11.8s1.5-9.4,4.5-12c3-2.6,7.7-3.9,14.1-3.9s11.2,1.3,14.2,3.9c3,2.6,4.5,6.6,4.5,12s-1.5,9.1-4.4,11.8c-2.9,2.7-7.7,4-14.3,4ZM-765.3-335.2v-88.8h31.8v88.8h-31.8Z"/>
        <path class="st1" d="M-724.1-338.5l3.2-22.7c2.1.6,4.4,1.2,7.1,1.8,2.6.5,5.4,1,8.2,1.5,2.8.4,5.6.8,8.3,1,2.7.2,5.1.3,7.3.3,3.4,0,5.8-.4,7.3-1.2s2.3-2,2.3-3.5-.6-2.1-1.7-2.8c-1.1-.6-2.7-1.2-4.7-1.7-2-.5-4.3-.9-6.9-1.4-2.6-.4-5.4-1-8.4-1.8-3.5-.8-6.5-1.8-9.2-3.2-2.7-1.4-4.9-3.2-6.7-5.4-1.8-2.2-3.2-4.6-4-7.5-.8-2.8-1.2-6-1.2-9.6,0-10.6,3.2-18.4,9.7-23.4,6.4-5,16-7.5,28.8-7.5s7.8.2,11.3.6c3.5.4,6.9,1,10.1,1.6,3.2.6,6.2,1.5,9,2.4l-3.7,23c-2.6-.9-5.2-1.6-7.9-2.2-2.7-.6-5.5-1.1-8.4-1.4-3-.3-6.4-.5-10.3-.5s-5,.3-6.6,1c-1.6.6-2.4,1.8-2.4,3.4s.3,1.7,1,2.3c.6.5,1.7,1,3.1,1.4,1.4.4,3.2.8,5.3,1.1,2.1.4,4.6.8,7.4,1.2,3.9.6,7.5,1.6,10.7,2.8,3.2,1.2,6.1,2.9,8.6,4.9,2.5,2,4.4,4.6,5.8,7.8,1.4,3.2,2,7.1,2,11.6s-.7,8.9-2.1,12.3c-1.4,3.5-3.4,6.4-5.9,8.8-2.5,2.4-5.5,4.3-8.9,5.7-3.4,1.4-7.1,2.4-11.2,3.1-4.1.6-8.2,1-12.6,1s-7.7-.2-11.5-.5c-3.8-.3-7.5-.9-11-1.6-3.6-.8-7.2-1.7-10.9-2.8Z"/>
        <path class="st1" d="M-608.7-333.6c-6.1,0-11.2-1.2-15.4-3.5-4.2-2.3-7.4-6-9.6-11-2.2-5-3.2-11.5-3.2-19.6v-33.4h-11.7v-21.1l11.7-1.8,3.7-18.2h28.1v18.2h19.5v22.9h-19.5v30.8c0,3.8.6,6.4,1.9,7.7,1.3,1.4,3.2,2,5.8,2s3.2-.2,5-.5c1.8-.3,3.9-.7,6.2-1.1l4.2,24.2c-4.7,1.6-9.2,2.8-13.7,3.4-4.5.6-8.8,1-13.1,1Z"/>
        <path class="st1" d="M-545.7-424v10.1c3-2.8,5.7-5.1,8.1-6.8,2.4-1.7,4.8-3,7.2-3.7,2.4-.8,5.2-1.1,8.2-1.1s3.4.1,5.2.4c1.8.3,3.8.7,5.8,1.4l-5,28.9c-1.9-.5-3.9-.9-5.8-1.1-1.9-.2-3.6-.3-5.3-.3-2.4,0-4.8.3-7.3.9-2.5.6-5.2,1.8-8.1,3.7v56.6h-31.8v-88.8h28.7Z"/>
        <path class="st1" d="M-484.1-301.1l10.9-34.1h-3.6l-32.3-88.8,35.1-.2,15.3,63.6,15.3-63.6,33.6.2-40.2,123-33.9-.2Z"/>
      </g>
      <g>
        <path class="st3" d="M-1024.7-472.7c-1.4,0-2.8-.2-4.2-.7-1.4-.5-2.8-1.2-4.3-2.2-1.4-1-2.9-2.2-4.4-3.7-1.5-1.5-3-3.3-4.7-5.4-1.7-2.1-3.4-4.5-5.2-7.2-.4,0-.9,0-1.6,0h-4.6c-1,0-2.1,0-3.2,0v18.4h-10.3v-52.2c2.7-.1,5.1-.3,7.3-.4,2.2,0,4.3-.2,6.2-.2,1.9,0,3.7,0,5.5,0,4,0,7.4.3,10.2.9,2.9.6,5.2,1.5,6.9,2.8,1.8,1.2,3.1,2.9,3.9,4.9.8,2,1.2,4.5,1.2,7.3s-.4,5.5-1.3,7.7c-.9,2.1-2.2,3.9-3.9,5.2-1.7,1.3-3.7,2.3-6.2,3.1,1.5,2.1,2.9,3.8,4.2,5.3,1.3,1.4,2.6,2.7,3.7,3.6,1.1,1,2.2,1.7,3.1,2.2.9.5,1.8.7,2.7.7s.3,0,.6,0c.2,0,.4,0,.6,0v9.8c-.1,0-.5,0-.9.1-.4,0-.9,0-1.5,0ZM-1048.5-499.9c2,0,3.8-.1,5.3-.4,1.6-.3,2.8-.8,3.8-1.5,1-.7,1.7-1.6,2.2-2.8.5-1.1.7-2.6.7-4.4s-.3-3.9-1-5.3c-.7-1.3-1.9-2.3-3.5-2.9-1.7-.6-4-.9-7-.9h-2.2c-.6,0-1.3,0-1.9,0-.6,0-1.3,0-2,0-.7,0-1.6,0-2.7.2v17.6c.8,0,1.6,0,2.3.1.7,0,1.4,0,2,0,.7,0,1.4,0,2,0h2Z"/>
        <path class="st3" d="M-1008.4-472.7c-2.3,0-4.4-.4-6.1-1.3s-3.1-2.1-4-3.9c-1-1.7-1.5-3.9-1.5-6.5v-29.3h9.9v27.1c0,1.8.5,3.2,1.5,4.2,1,1,2.3,1.5,4.1,1.5s2,0,2.9-.3c.9-.2,1.8-.5,2.7-.9.9-.4,1.9-.8,2.9-1.3v-30.2h9.8v29.2c0,.8,0,1.5.3,2,.2.5.5.9.8,1.1.3.2.7.3,1.1.3.6,0,1.2-.1,1.8-.4l.9,7.1c-.6.3-1.3.6-2,.9-.7.2-1.5.4-2.3.6-.8.1-1.6.2-2.5.2-1.6,0-3-.3-4.2-1-1.2-.7-2-1.7-2.6-3.1-1.4.8-2.9,1.5-4.3,2.2-1.4.7-2.9,1.2-4.4,1.5-1.5.3-3.1.5-4.8.5Z"/>
        <path class="st3" d="M-970-513.7v4.8c1.4-1.3,2.8-2.4,3.9-3.2,1.2-.8,2.4-1.4,3.6-1.8,1.2-.4,2.6-.6,4.1-.6s1.7,0,2.6.2c.9.1,1.9.3,2.8.6l-1.6,9.1c-.8-.2-1.7-.4-2.7-.6-.9-.1-1.8-.2-2.6-.2-1.4,0-2.9.3-4.4.8-1.5.5-3.1,1.5-4.8,2.8v28.3h-9.9v-40.3h9Z"/>
        <path class="st3" d="M-954.9-483.9c0-2.5.5-4.5,1.4-6.1.9-1.6,2.4-2.8,4.4-3.7,2-.9,4.4-1.6,7.4-2.1,3-.5,6.4-.9,10.5-1.3v-3.8c0-1.7-.7-3-2-3.9-1.4-.9-3.3-1.3-5.8-1.3s-2.1,0-3.5.1c-1.3.1-2.7.3-4,.5-1.4.2-2.8.6-4.4,1.1l-1.6-8c2.2-.7,4.6-1.2,7.1-1.6,2.5-.4,4.9-.6,7-.6,4,0,7.2.5,9.7,1.5,2.5,1,4.4,2.5,5.6,4.5,1.2,2,1.8,4.5,1.8,7.5v16.1c0,1.4.2,2.3.6,2.8.4.5.9.7,1.6.7s.5,0,.9,0c.3,0,.6-.1.9-.3l.9,7.2c-.9.5-1.9,1-3,1.3-1.1.3-2.2.4-3.5.4-1.9,0-3.5-.4-4.8-1.2-1.2-.8-2.1-2.1-2.6-3.8-1.2.9-2.5,1.7-3.9,2.5-1.4.8-2.9,1.4-4.5,1.8-1.6.4-3.4.7-5.3.7s-3.1-.2-4.4-.7c-1.3-.5-2.5-1.2-3.4-2.2-.9-1-1.7-2.2-2.2-3.6-.5-1.4-.8-3-.8-4.8ZM-944.7-484.6c0,1.8.4,3.1,1.2,3.9.8.8,1.9,1.3,3.3,1.3s2.1-.2,3.1-.5c1-.3,2.1-.8,3.1-1.3,1-.6,1.9-1.2,2.8-2v-8.4c-2.1.1-4,.4-5.7.6-1.7.3-3.1.7-4.3,1.2s-2.1,1.2-2.6,2.1c-.6.9-.9,1.9-.9,3.1Z"/>
        <path class="st3" d="M-904.7-528.5v42.1c0,1.4.2,2.5.5,3.2.3.7.8,1.3,1.4,1.5.6.3,1.2.4,1.9.4s1,0,1.6-.1c.6,0,1.3-.2,2-.4l.9,7.6c-1,.4-2.1.8-3.4,1.1-1.3.3-2.6.4-3.9.4-2.3,0-4.3-.4-5.9-1.2-1.6-.8-2.8-2.1-3.6-4-.8-1.9-1.3-4.4-1.3-7.7v-42.9h9.9Z"/>
        <path class="st3" d="M-875.9-473.4v-52.1h35.7v8.9h-25.5v12.1h23.6v8.8h-23.6v13.4h26.8v8.9h-37.1Z"/>
        <path class="st3" d="M-835.1-473.4v-40.3h9v3.5c1.7-1,3.3-1.8,4.7-2.4,1.5-.6,2.9-1.1,4.4-1.4,1.5-.3,3-.5,4.7-.5,2.6,0,4.7.4,6.4,1.3,1.7.9,3,2.2,3.9,3.9s1.3,3.7,1.3,6.1v29.7h-9.9v-26.6c0-2-.5-3.6-1.5-4.6-1-1-2.5-1.5-4.4-1.5s-1.9,0-2.9.3c-1,.2-1.9.5-2.9.9-.9.4-1.9.8-3,1.4v30.1h-9.9Z"/>
        <path class="st3" d="M-785-473.4l-14.3-40.1,10.4-.3,9.9,31.6,9.3-31.6,10.3.3-14.5,40.1h-11.1Z"/>
        <path class="st3" d="M-751.7-519.4c-2,0-3.5-.4-4.5-1.2-.9-.8-1.4-2.1-1.4-3.9s.5-3.1,1.4-3.9c.9-.8,2.4-1.2,4.5-1.2s3.6.4,4.5,1.2c.9.8,1.3,2.1,1.3,3.9s-.4,3.1-1.3,3.9c-.9.8-2.4,1.2-4.5,1.2ZM-756.7-473.4v-40.3h9.9v40.3h-9.9Z"/>
        <path class="st3" d="M-731.9-513.7v4.8c1.4-1.3,2.8-2.4,3.9-3.2,1.2-.8,2.4-1.4,3.6-1.8,1.2-.4,2.6-.6,4.1-.6s1.7,0,2.6.2c.9.1,1.9.3,2.8.6l-1.6,9.1c-.8-.2-1.7-.4-2.7-.6-.9-.1-1.8-.2-2.6-.2-1.4,0-2.9.3-4.4.8-1.5.5-3.1,1.5-4.8,2.8v28.3h-9.9v-40.3h9Z"/>
        <path class="st3" d="M-716.3-493.6c0-3.4.3-6.3,1-8.9.6-2.6,1.7-4.7,3.1-6.5,1.4-1.8,3.3-3.1,5.7-4,2.4-.9,5.4-1.3,9-1.3s6.6.4,9,1.3c2.4.9,4.4,2.2,5.8,4,1.4,1.8,2.5,4,3.1,6.5.6,2.6.9,5.5.9,8.9s-.3,6.5-1,9.1c-.7,2.6-1.7,4.8-3.2,6.5-1.5,1.8-3.4,3.1-5.8,4s-5.3,1.3-8.8,1.3-6.3-.4-8.7-1.3c-2.4-.9-4.3-2.2-5.8-4-1.5-1.8-2.5-3.9-3.2-6.5-.7-2.6-1-5.6-1-9.1ZM-706.1-493.6c0,3.4.3,6,.9,8,.6,2,1.5,3.4,2.8,4.2,1.3.8,3,1.3,4.9,1.3s3.7-.4,5-1.3c1.2-.8,2.2-2.2,2.8-4.2.6-2,.9-4.6.9-8s-.3-5.9-.9-7.8c-.6-1.9-1.5-3.3-2.8-4.1-1.3-.8-3-1.2-5.1-1.2s-3.9.4-5.1,1.2c-1.2.8-2.1,2.2-2.7,4.1-.5,1.9-.8,4.5-.8,7.8Z"/>
        <path class="st3" d="M-674.4-473.4v-40.3h9v3.5c1.7-1,3.3-1.8,4.7-2.4,1.5-.6,2.9-1.1,4.4-1.4,1.5-.3,3-.5,4.7-.5,2.6,0,4.7.4,6.4,1.3,1.7.9,3,2.2,3.9,3.9s1.3,3.7,1.3,6.1v29.7h-9.9v-26.6c0-2-.5-3.6-1.5-4.6-1-1-2.5-1.5-4.4-1.5s-1.9,0-2.9.3c-1,.2-1.9.5-2.9.9-.9.4-1.9.8-3,1.4v30.1h-9.9Z"/>
        <path class="st3" d="M-634.2-473.4v-40.3h9v3.5c1.4-.9,2.9-1.7,4.3-2.3,1.4-.6,2.8-1.1,4.2-1.4,1.4-.3,2.8-.5,4.2-.5s2.9.2,4.1.6c1.2.4,2.1.9,2.9,1.5.8.6,1.5,1.5,2,2.5,1.5-.9,3-1.7,4.4-2.4,1.5-.7,3-1.2,4.5-1.6,1.6-.4,3.2-.6,4.9-.6s2.9.2,4,.6c1.1.4,2.1.9,3,1.6.8.7,1.5,1.5,2.1,2.5.6.9,1,2,1.3,3.1.3,1.1.4,2.4.4,3.6v29.6h-10v-26.5c0-.8,0-1.6-.3-2.4s-.4-1.4-.8-1.9c-.4-.5-.9-1-1.6-1.3-.7-.3-1.6-.5-2.6-.5s-1.9.1-2.9.3c-.9.2-1.8.5-2.6.9-.8.4-1.6.8-2.3,1.2.1.5.2,1.1.3,1.6,0,.5,0,1,0,1.4v27.2h-9.9v-26.5c0-.8,0-1.6-.3-2.3-.2-.7-.4-1.4-.8-1.9-.4-.6-.9-1-1.6-1.3-.7-.3-1.6-.5-2.6-.5s-1.7.1-2.6.3c-.9.2-1.7.5-2.5.9-.8.3-1.6.7-2.5,1.2v30.1h-9.9Z"/>
        <path class="st3" d="M-555.7-472.7c-3,0-5.7-.4-8-1.2-2.3-.8-4.3-2-5.9-3.5-1.6-1.6-2.9-3.6-3.7-6.1-.8-2.5-1.2-5.5-1.2-9s.5-7.5,1.5-10.3c1-2.8,2.3-5,4.1-6.7,1.8-1.7,3.8-2.9,6.3-3.7,2.4-.8,5-1.2,7.9-1.2,5.6,0,9.7,1.4,12.4,4.2s4,7.5,4,13.9,0,.9,0,1.6c0,.7,0,1.4-.1,2.1-1.1,0-2.5.1-4.4.3-1.8.1-3.8.3-6.1.4s-4.6.3-7.2.4c-2.6.1-5.2.2-8,.2,0,.2,0,.5,0,.7v.5c0,2.3.4,4.1,1.1,5.5.7,1.4,1.9,2.4,3.5,3.1,1.6.7,3.5,1,5.8,1s3.1,0,4.6-.3c1.5-.2,3.1-.4,4.7-.7,1.6-.3,3.1-.6,4.6-.9l1.2,7.2c-1.5.5-3.2,1-5.1,1.4-1.8.4-3.7.6-5.6.8-1.9.2-3.9.3-6.2.3ZM-564.2-497.5c1.7,0,3.4,0,5.1-.1,1.6,0,3.2-.2,4.6-.3,1.4,0,2.7-.2,3.7-.2,1,0,1.8,0,2.3-.1,0-2.2-.3-4-.8-5.3-.5-1.3-1.3-2.2-2.4-2.8s-2.4-.9-3.9-.9-2,.1-2.9.4c-.9.3-1.8.8-2.6,1.5-.8.7-1.4,1.7-2,3-.5,1.3-.9,2.9-1.1,4.8Z"/>
        <path class="st3" d="M-534.2-473.4v-40.3h9v3.5c1.7-1,3.3-1.8,4.7-2.4,1.5-.6,2.9-1.1,4.4-1.4,1.5-.3,3-.5,4.7-.5,2.6,0,4.7.4,6.4,1.3,1.7.9,3,2.2,3.9,3.9.9,1.7,1.3,3.7,1.3,6.1v29.7h-9.9v-26.6c0-2-.5-3.6-1.5-4.6-1-1-2.5-1.5-4.4-1.5s-1.9,0-2.9.3c-1,.2-1.9.5-2.9.9s-1.9.8-3,1.4v30.1h-9.9Z"/>
        <path class="st3" d="M-479.5-472.7c-2.5,0-4.7-.5-6.4-1.5-1.8-1-3.1-2.5-3.9-4.5-.9-2-1.3-4.7-1.3-7.9v-19.9h-6.2v-6.5l6.2-.7,1.3-8.9h8.6v8.9h11.5v7.2h-11.5v19.1c0,2.3.4,3.9,1.3,4.9.8,1,2.2,1.5,4.1,1.5s2,0,3-.3c1-.2,2.1-.5,3.2-.8l1.3,7.6c-2,.7-3.9,1.2-5.8,1.5-1.9.3-3.6.4-5.3.4Z"/>
        <path class="st3" d="M-468.3-483.9c0-2.5.5-4.5,1.4-6.1s2.4-2.8,4.4-3.7c2-.9,4.4-1.6,7.4-2.1,2.9-.5,6.4-.9,10.5-1.3v-3.8c0-1.7-.7-3-2-3.9-1.4-.9-3.3-1.3-5.8-1.3s-2.1,0-3.5.1c-1.3.1-2.7.3-4,.5-1.4.2-2.8.6-4.4,1.1l-1.6-8c2.2-.7,4.6-1.2,7.1-1.6,2.5-.4,4.9-.6,7-.6,4,0,7.2.5,9.7,1.5,2.5,1,4.4,2.5,5.6,4.5,1.2,2,1.8,4.5,1.8,7.5v16.1c0,1.4.2,2.3.6,2.8.4.5.9.7,1.6.7s.5,0,.9,0c.3,0,.6-.1.9-.3l.9,7.2c-.9.5-1.9,1-3,1.3-1.1.3-2.2.4-3.5.4-1.9,0-3.5-.4-4.8-1.2-1.2-.8-2.1-2.1-2.6-3.8-1.2.9-2.5,1.7-3.9,2.5-1.4.8-2.9,1.4-4.5,1.8s-3.4.7-5.3.7-3.1-.2-4.4-.7c-1.3-.5-2.5-1.2-3.4-2.2-.9-1-1.6-2.2-2.2-3.6-.5-1.4-.8-3-.8-4.8ZM-458.2-484.6c0,1.8.4,3.1,1.2,3.9.8.8,1.9,1.3,3.3,1.3s2.1-.2,3.1-.5c1-.3,2.1-.8,3.1-1.3,1-.6,1.9-1.2,2.8-2v-8.4c-2.1.1-4,.4-5.7.6-1.7.3-3.1.7-4.3,1.2-1.2.5-2.1,1.2-2.6,2.1-.6.9-.9,1.9-.9,3.1Z"/>
        <path class="st3" d="M-418.2-528.5v42.1c0,1.4.2,2.5.5,3.2.3.7.8,1.3,1.4,1.5.6.3,1.2.4,1.9.4s1,0,1.6-.1c.6,0,1.3-.2,2-.4l.9,7.6c-1,.4-2.1.8-3.4,1.1-1.3.3-2.6.4-3.9.4-2.3,0-4.3-.4-5.9-1.2-1.6-.8-2.8-2.1-3.6-4-.8-1.9-1.3-4.4-1.3-7.7v-42.9h9.9Z"/>
      </g>
    </g>
  </g>
  <g>
    <g>
      <g>
        <path class="st5" d="M-1193.4-1033.2c3.6-12.7,5.6-26,5.6-39.8,0-80.3-65.1-145.4-145.4-145.4s-145.4,65.1-145.4,145.4,2,27.2,5.6,39.8h279.7Z"/>
        <path class="st5" d="M-1557-1068.4c61.2-37.2,137.2-49,210.8-25.4,53.7,17.2,97.7,50.6,128.5,93,12.9-8,25.1-17.1,36.4-27.2-40.1-55-101.9-94.1-174.8-103.2-76.6-9.7-149.8,15.8-203.1,63.7"/>
        <path class="st5" d="M-1432.5-901.1c-.3,4.6-.4,9.3-.4,13.9,25.9,12.7,54.7,20.6,85.3,22.5,124.4,7.7,231.5-86.9,239.3-211.3.3-4.7.4-9.3.4-13.9-25.9-12.7-54.7-20.6-85.3-22.5-124.4-7.7-231.5,86.9-239.3,211.3Z"/>
        <path class="st5" d="M-1559.2-1067.7c10.9,108.1,98.7,195.5,210.6,202.4,48.1,3,93.6-9.3,131.8-32.8-10.9-108.1-98.7-195.5-210.6-202.4-48.1-3-93.6,9.3-131.8,32.8Z"/>
      </g>
      <g>
        <g>
          <path class="st11" d="M-1193.4-1033.2c3.6-12.7,5.6-26,5.6-39.8,0-80.3-65.1-145.4-145.4-145.4s-145.4,65.1-145.4,145.4,2,27.2,5.6,39.8h279.7Z"/>
          <path class="st9" d="M-1198.5-1033.2c3.9-12.2,6-25.1,6-38.6,0-69.8-56.6-126.4-126.4-126.4s-126.4,56.6-126.4,126.4,2.1,26.4,6,38.6h240.8Z"/>
        </g>
        <path class="st8" d="M-1557-1068.4c61.2-37.2,137.2-49,210.8-25.4,53.7,17.2,97.7,50.6,128.5,93,12.9-8,25.1-17.1,36.4-27.2-40.1-55-101.9-94.1-174.8-103.2-76.6-9.7-149.8,15.8-203.1,63.7"/>
        <path class="st2" d="M-1552.7-1068.6c64.2-31.7,136.8-36.7,208-6.8,52,21.8,93,58.9,120,103.8,13.5-6.8,26.5-14.9,38.6-24-35.2-58.3-93.4-102.5-165.2-118-75.5-16.3-145.9,2.9-203.1,45.9"/>
        <path class="st7" d="M-1432.5-901.1c-.3,4.6-.4,9.3-.4,13.9,25.9,12.7,54.7,20.6,85.3,22.5,124.4,7.7,231.5-86.9,239.3-211.3.3-4.7.4-9.3.4-13.9-25.9-12.7-54.7-20.6-85.3-22.5-124.4-7.7-231.5,86.9-239.3,211.3Z"/>
        <path class="st6" d="M-1416-908.7c-.3,4.2-.4,8.3-.4,12.4,23.3,11.4,49.1,18.5,76.6,20.2,111.7,6.9,207.9-78,214.8-189.7.3-4.2.4-8.3.4-12.5-23.3-11.4-49.1-18.5-76.6-20.2-111.7-6.9-207.9,78-214.8,189.7Z"/>
        <path class="st10" d="M-1355.8-1016c1.7.6,3.4,1.2,5.1,1.8,16.3-8.1,34-14,53-17.3,35.3-6.2,70.5-2.6,103.3,8.8,3.6-1.7,7.2-3.6,10.7-5.5-34.6-12.4-71.9-16.4-109.3-9.8-22.7,4-43.8,11.6-62.8,22.1ZM-1279.2-1057.2c-32.6,5.7-61.7,18.8-86.3,37.4,1.2.5,2.4,1,3.6,1.4,22.6-15.9,48.9-27.2,78-32.3,39.5-6.9,79-1.6,115,13.2,3-2,5.9-4.1,8.7-6.2-37.2-15.3-78.1-20.8-119-13.6ZM-1265.4-1076.2c-41.6,7.3-77.6,26.6-105.6,54.1.9.4,1.8.8,2.7,1.2,26.5-24.7,59.9-42,98.2-48.7,42-7.4,84.2-.9,121.9,16.3,2.5-2.2,4.9-4.5,7.3-6.8-38.7-17.1-81.7-23.5-124.6-16ZM-1339-1010.7c3,.8,6.1,1.6,9.1,2.3,6-1.6,12.1-3,18.4-4.1,27.8-4.9,55.6-3.7,82.2,2.6,5-1.4,10-2.9,15-4.6-29.7-8.1-61.1-10.1-92.5-4.6-11.1,1.9-21.9,4.8-32.1,8.4ZM-1251.6-1095.2c-50.2,8.5-92.2,35.1-121.9,72,.7.3,1.5.6,2.2,1,28.5-34,68.1-58.2,115-66.4,43.4-7.6,86.8-.5,125.5,17.9,2.1-2.4,4.2-4.9,6.2-7.4-39.1-19.5-77.7-25.4-127.1-17.1Z"/>
        <g>
          <path class="st3" d="M-1559.2-1067.7c10.9,108.1,98.7,195.5,210.6,202.4,48.1,3,93.6-9.3,131.8-32.8-10.9-108.1-98.7-195.5-210.6-202.4-48.1-3-93.6,9.3-131.8,32.8Z"/>
          <path class="st12" d="M-1524-1050.2c8.6,85.9,78.4,155.3,167.3,160.8,38.2,2.4,74.4-7.4,104.7-26-8.6-85.9-78.4-155.3-167.3-160.8-38.2-2.4-74.4,7.4-104.7,26Z"/>
          <path class="st12" d="M-1541.9-1060.1c9.7,96.5,88.1,174.6,188.1,180.8,43,2.7,83.6-8.3,117.7-29.3-9.7-96.5-88.1-174.6-188.1-180.8-43-2.7-83.6,8.3-117.7,29.3Z"/>
          <path class="st1" d="M-1404.2-1014.9s120.8,21.6,156.5,112.9c2.3,5.8-100.3,50.6-191.6-1.7-32-18.4-67.8-49.4-87-96.8-.7.4,56-23.9,122.1-14.4Z"/>
          <path class="st3" d="M-1236.1-919s-35.2-78-168.1-95.9c2.9,2.1,123.2,27.7,156,114.1,2.2-.9,12.1-6,12.1-6v-12.3Z"/>
        </g>
      </g>
    </g>
    <g>
      <g>
        <path class="st11" d="M-960.8-960.4c-3.6,0-7.2-.4-10.8-1.2-3.6-.8-7.2-2.1-10.8-3.9-3.6-1.8-7.2-4.1-10.8-7-3.6-2.9-7.3-6.4-11-10.5-3.7-4.1-7.5-8.9-11.4-14.3h-9.4v35.2h-32.9v-113.6c7-.3,13.5-.6,19.3-.8,5.8-.2,11.2-.4,16.1-.5,4.9-.1,9.2-.2,13-.2,9.2,0,17.1.7,23.7,2.1,6.6,1.4,12,3.6,16.1,6.5,4.2,2.9,7.2,6.7,9.2,11.3,1.9,4.6,2.9,10,2.9,16.1s-1,11.7-2.9,16.3c-1.9,4.6-4.7,8.4-8.1,11.3-3.5,2.9-7.6,5.1-12.3,6.7,2.3,2.5,4.5,4.7,6.7,6.5,2.2,1.8,4.3,3.4,6.3,4.5,2,1.2,3.9,2.1,5.8,2.7,1.9.6,3.8.9,5.6.9s.9,0,1.4,0c.5,0,.9,0,1.4,0v31.3c-.8.1-1.7.2-2.8.4-1.1.2-2.5.2-4.1.2ZM-1009.5-1019.8c3.1,0,5.8-.3,8-1,2.2-.6,4.1-1.6,5.5-3,1.5-1.4,2.5-3.1,3.2-5.2.7-2.1,1.1-4.7,1.1-7.7s-.5-6.5-1.5-8.7c-1-2.2-2.7-3.8-5.3-4.9-2.5-1-6-1.5-10.5-1.5h-3.9c-1.1,0-2.2,0-3.3,0-1.1,0-2.4.1-3.8.2-1.4,0-3.1.2-5.2.4v30.8c1.4.1,2.6.2,3.7.2,1.1,0,2.2.1,3.3.2,1.1,0,2.4,0,3.7,0h4.8Z"/>
        <path class="st11" d="M-902.6-960.4c-7.2,0-13.7-.8-19.3-2.4-5.6-1.6-10.4-4.2-14.3-7.8-3.9-3.6-6.9-8.2-8.9-13.9-2.1-5.7-3.1-12.5-3.1-20.4s1.1-15.9,3.3-22c2.2-6.1,5.4-11,9.5-14.8,4.1-3.7,9-6.5,14.6-8.2,5.6-1.7,11.8-2.6,18.5-2.6,13.6,0,23.7,3.3,30.1,9.9,6.4,6.6,9.7,17.3,9.7,32.1s0,2.7,0,4.6c0,1.9-.1,3.7-.2,5.3-2.9.2-6.4.5-10.3.8-4,.3-8.2.6-12.8,1-4.6.3-9.4.6-14.4.9-5,.3-10,.5-15.1.7v1.5c.1,2.3.7,4.2,1.9,5.8,1.1,1.6,3.1,2.8,5.8,3.6,2.8.8,6.4,1.2,11,1.2s6-.2,9.2-.5c3.2-.3,6.6-.8,10.1-1.4,3.5-.6,7.1-1.3,10.6-2l3.7,22.7c-4.1,1.4-8.3,2.5-12.4,3.3-4.2.8-8.5,1.4-12.9,1.9-4.4.4-9.2.6-14.3.6ZM-915.2-1014.9c1.9,0,3.9,0,5.8-.2,1.9-.1,3.9-.2,5.8-.2,1.9,0,3.6-.1,5.3-.2,1.6-.1,3-.2,4.2-.2-.1-3.8-.5-6.7-1.3-8.8-.8-2.1-1.8-3.6-3.2-4.5-1.4-.9-3.2-1.3-5.4-1.3s-2.7.2-4,.6c-1.2.4-2.4,1.2-3.3,2.4-1,1.1-1.8,2.7-2.4,4.7-.6,2-1.1,4.6-1.5,7.7Z"/>
        <path class="st11" d="M-817.4-926.3c-13.2,0-23.2-1.8-30-5.4-6.8-3.6-10.2-9.1-10.2-16.5s.5-5.7,1.5-8.1c1-2.4,2.6-4.5,4.7-6.4,2.1-1.9,4.7-3.4,7.9-4.6l14.9,5.7c-1,.5-1.8,1.1-2.5,1.7-.7.6-1.2,1.2-1.6,1.9-.4.7-.6,1.5-.6,2.5,0,1.7.5,3.1,1.6,4.1,1.1,1,2.9,1.7,5.6,2.2,2.6.5,6.3.7,11,.7s7.9-.3,10.9-.8c2.9-.5,5.1-1.3,6.6-2.3,1.5-1,2.2-2.2,2.2-3.7s-.2-1.9-.6-2.5c-.4-.6-1.4-1-2.8-1.3-1.5-.3-3.6-.4-6.4-.4h-16.4c-6.5,0-12.2-.7-17-2.2-4.9-1.5-8.6-3.7-11.3-6.7-2.7-3-4-6.8-4-11.4s1.3-8.7,3.8-11.9c2.5-3.2,5.8-5.9,9.8-8l15.6,3.9c-1.7,1.1-3,2.1-3.9,3.2-.9,1-1.3,2.3-1.3,3.8s.6,2.8,1.9,3.7c1.2.8,3.1,1.2,5.6,1.2h28.1c9.1,0,16.2,2.2,21.3,6.6,5.1,4.4,7.6,10.5,7.6,18.3s-1.9,13-5.8,17.9c-3.9,4.9-9.7,8.7-17.3,11.2-7.6,2.5-17.2,3.8-28.6,3.8ZM-814.1-990.7c-13.1,0-23-2.6-29.6-7.8-6.7-5.2-10-12.9-10-23s3.3-18,10-23.1c6.7-5.1,16.5-7.7,29.6-7.7s23.1,2.6,29.7,7.7c6.6,5.1,9.9,12.8,9.9,23.1s-3.3,17.8-9.9,23c-6.6,5.2-16.5,7.8-29.7,7.8ZM-814.1-1010.4c3.4,0,5.8-.8,7.4-2.4,1.6-1.6,2.4-4.5,2.4-8.8s-.8-7.4-2.4-9c-1.6-1.6-4-2.4-7.4-2.4s-5.7.8-7.2,2.4c-1.6,1.6-2.4,4.6-2.4,9s.8,7.3,2.4,8.8c1.6,1.6,4,2.4,7.2,2.4ZM-779.4-1028.4l-11.8-16.1c1.5-4.2,3.9-7.4,7.1-9.4,3.2-2.1,7.2-3.1,12.1-3.1s3.4.1,5,.3c1.6.2,3,.6,4.2,1.1l-3.6,23.9c-1-.2-2-.4-3-.6-1-.2-2.1-.2-3.3-.2s-2.5.3-3.7,1c-1.2.6-2.2,1.7-2.9,3.1Z"/>
        <path class="st11" d="M-740.3-1056.8c-6.4,0-11.1-1.3-14.1-4-3-2.6-4.5-6.6-4.5-11.8s1.5-9.4,4.5-12c3-2.6,7.7-3.9,14.1-3.9s11.2,1.3,14.2,3.9c3,2.6,4.5,6.6,4.5,12s-1.5,9.1-4.4,11.8c-2.9,2.7-7.7,4-14.3,4ZM-756.2-962v-88.8h31.8v88.8h-31.8Z"/>
        <path class="st11" d="M-715-965.3l3.2-22.7c2.1.6,4.4,1.2,7.1,1.8,2.6.5,5.4,1,8.2,1.5,2.8.4,5.6.8,8.3,1,2.7.2,5.1.3,7.3.3,3.4,0,5.8-.4,7.3-1.2,1.5-.8,2.3-2,2.3-3.5s-.6-2.1-1.7-2.8c-1.1-.6-2.7-1.2-4.7-1.7-2-.5-4.3-.9-6.9-1.4-2.6-.4-5.4-1-8.4-1.8-3.5-.8-6.5-1.8-9.2-3.2-2.7-1.4-4.9-3.2-6.7-5.4-1.8-2.2-3.2-4.6-4-7.5-.8-2.8-1.2-6-1.2-9.6,0-10.6,3.2-18.4,9.7-23.4,6.4-5,16-7.5,28.8-7.5s7.8.2,11.3.6c3.5.4,6.9,1,10.1,1.6,3.2.6,6.2,1.5,9,2.4l-3.7,23c-2.6-.9-5.2-1.6-7.9-2.2-2.7-.6-5.5-1.1-8.4-1.4-3-.3-6.4-.5-10.3-.5s-5,.3-6.6,1c-1.6.6-2.4,1.8-2.4,3.4s.3,1.7,1,2.3c.6.5,1.7,1,3.1,1.4,1.4.4,3.2.8,5.3,1.1,2.1.4,4.6.8,7.4,1.2,3.9.6,7.5,1.6,10.7,2.8,3.2,1.2,6.1,2.9,8.6,4.9,2.5,2,4.4,4.6,5.8,7.8,1.4,3.2,2,7.1,2,11.6s-.7,8.9-2.1,12.3c-1.4,3.5-3.4,6.4-5.9,8.8-2.5,2.4-5.5,4.3-8.9,5.7-3.4,1.4-7.1,2.4-11.2,3.1-4.1.6-8.2,1-12.6,1s-7.7-.2-11.5-.5c-3.8-.3-7.5-.9-11-1.6-3.6-.8-7.2-1.7-10.9-2.8Z"/>
        <path class="st11" d="M-599.6-960.4c-6.1,0-11.2-1.2-15.4-3.5-4.2-2.3-7.4-6-9.6-11-2.2-5-3.2-11.5-3.2-19.6v-33.4h-11.7v-21.1l11.7-1.8,3.7-18.2h28.1v18.2h19.5v22.9h-19.5v30.8c0,3.8.6,6.4,1.9,7.7,1.3,1.4,3.2,2,5.8,2s3.2-.2,5-.5c1.8-.3,3.9-.7,6.2-1.1l4.2,24.2c-4.7,1.6-9.2,2.8-13.7,3.4-4.5.6-8.8,1-13.1,1Z"/>
        <path class="st11" d="M-536.7-1050.8v10.1c3-2.8,5.7-5.1,8.1-6.8,2.4-1.7,4.8-3,7.2-3.7,2.4-.8,5.2-1.1,8.2-1.1s3.4.1,5.2.4c1.8.3,3.8.7,5.8,1.4l-5,28.9c-1.9-.5-3.9-.9-5.8-1.1-1.9-.2-3.6-.3-5.3-.3-2.4,0-4.8.3-7.3.9-2.5.6-5.2,1.8-8.1,3.7v56.6h-31.8v-88.8h28.7Z"/>
        <path class="st11" d="M-475-927.9l10.9-34.1h-3.6l-32.3-88.8,35.1-.2,15.3,63.6,15.3-63.6,33.6.2-40.2,123-33.9-.2Z"/>
      </g>
      <g>
        <path class="st4" d="M-1015.7-1099.5c-1.4,0-2.8-.2-4.2-.7-1.4-.5-2.8-1.2-4.3-2.2-1.4-1-2.9-2.2-4.4-3.7-1.5-1.5-3-3.3-4.7-5.4-1.7-2.1-3.4-4.5-5.2-7.2-.4,0-.9,0-1.6,0h-4.6c-1,0-2.1,0-3.2,0v18.4h-10.3v-52.2c2.7-.1,5.1-.3,7.3-.4,2.2,0,4.3-.2,6.2-.2,1.9,0,3.7,0,5.5,0,4,0,7.4.3,10.2.9,2.9.6,5.2,1.5,6.9,2.8,1.8,1.2,3.1,2.9,3.9,4.9.8,2,1.2,4.5,1.2,7.3s-.4,5.5-1.3,7.7c-.9,2.1-2.2,3.9-3.9,5.2-1.7,1.3-3.7,2.3-6.2,3.1,1.5,2.1,2.9,3.8,4.2,5.3,1.3,1.4,2.6,2.7,3.7,3.6,1.1,1,2.2,1.7,3.1,2.2.9.5,1.8.7,2.7.7s.3,0,.6,0c.2,0,.4,0,.6,0v9.8c-.1,0-.5,0-.9.1-.4,0-.9,0-1.5,0ZM-1039.4-1126.7c2,0,3.8-.1,5.3-.4,1.6-.3,2.8-.8,3.8-1.5,1-.7,1.7-1.6,2.2-2.8.5-1.1.7-2.6.7-4.4s-.3-3.9-1-5.3c-.7-1.3-1.9-2.3-3.5-2.9-1.7-.6-4-.9-7-.9h-2.2c-.6,0-1.3,0-1.9,0-.6,0-1.3,0-2,0-.7,0-1.6,0-2.7.2v17.6c.8,0,1.6,0,2.3.1.7,0,1.4,0,2,0,.7,0,1.4,0,2,0h2Z"/>
        <path class="st4" d="M-999.3-1099.5c-2.3,0-4.4-.4-6.1-1.3s-3.1-2.1-4-3.9c-1-1.7-1.5-3.9-1.5-6.5v-29.3h9.9v27.1c0,1.8.5,3.2,1.5,4.2,1,1,2.3,1.5,4.1,1.5s2,0,2.9-.3c.9-.2,1.8-.5,2.7-.9.9-.4,1.9-.8,2.9-1.3v-30.2h9.8v29.2c0,.8,0,1.5.3,2,.2.5.5.9.8,1.1.3.2.7.3,1.1.3.6,0,1.2-.1,1.8-.4l.9,7.1c-.6.3-1.3.6-2,.9-.7.2-1.5.4-2.3.6-.8.1-1.6.2-2.5.2-1.6,0-3-.3-4.2-1-1.2-.7-2-1.7-2.6-3.1-1.4.8-2.9,1.5-4.3,2.2-1.4.7-2.9,1.2-4.4,1.5-1.5.3-3.1.5-4.8.5Z"/>
        <path class="st4" d="M-961-1140.5v4.8c1.4-1.3,2.8-2.4,3.9-3.2,1.2-.8,2.4-1.4,3.6-1.8,1.2-.4,2.6-.6,4.1-.6s1.7,0,2.6.2c.9.1,1.9.3,2.8.6l-1.6,9.1c-.8-.2-1.7-.4-2.7-.6-.9-.1-1.8-.2-2.6-.2-1.4,0-2.9.3-4.4.8-1.5.5-3.1,1.5-4.8,2.8v28.3h-9.9v-40.3h9Z"/>
        <path class="st4" d="M-945.8-1110.7c0-2.5.5-4.5,1.4-6.1.9-1.6,2.4-2.8,4.4-3.7,2-.9,4.4-1.6,7.4-2.1,3-.5,6.4-.9,10.5-1.3v-3.8c0-1.7-.7-3-2-3.9-1.4-.9-3.3-1.3-5.8-1.3s-2.1,0-3.5.1c-1.3.1-2.7.3-4,.5-1.4.2-2.8.6-4.4,1.1l-1.6-8c2.2-.7,4.6-1.2,7.1-1.6,2.5-.4,4.9-.6,7-.6,4,0,7.2.5,9.7,1.5,2.5,1,4.4,2.5,5.6,4.5,1.2,2,1.8,4.5,1.8,7.5v16.1c0,1.4.2,2.3.6,2.8.4.5.9.7,1.6.7s.5,0,.9,0c.3,0,.6-.1.9-.3l.9,7.2c-.9.5-1.9,1-3,1.3-1.1.3-2.2.4-3.5.4-1.9,0-3.5-.4-4.8-1.2-1.2-.8-2.1-2.1-2.6-3.8-1.2.9-2.5,1.7-3.9,2.5-1.4.8-2.9,1.4-4.5,1.8-1.6.4-3.4.7-5.3.7s-3.1-.2-4.4-.7c-1.3-.5-2.5-1.2-3.4-2.2-.9-1-1.7-2.2-2.2-3.6-.5-1.4-.8-3-.8-4.8ZM-935.7-1111.4c0,1.8.4,3.1,1.2,3.9.8.8,1.9,1.3,3.3,1.3s2.1-.2,3.1-.5c1-.3,2.1-.8,3.1-1.3,1-.6,1.9-1.2,2.8-2v-8.4c-2.1.1-4,.4-5.7.6-1.7.3-3.1.7-4.3,1.2s-2.1,1.2-2.6,2.1c-.6.9-.9,1.9-.9,3.1Z"/>
        <path class="st4" d="M-895.6-1155.3v42.1c0,1.4.2,2.5.5,3.2.3.7.8,1.3,1.4,1.5.6.3,1.2.4,1.9.4s1,0,1.6-.1c.6,0,1.3-.2,2-.4l.9,7.6c-1,.4-2.1.8-3.4,1.1-1.3.3-2.6.4-3.9.4-2.3,0-4.3-.4-5.9-1.2-1.6-.8-2.8-2.1-3.6-4-.8-1.9-1.3-4.4-1.3-7.7v-42.9h9.9Z"/>
        <path class="st4" d="M-866.8-1100.2v-52.1h35.7v8.9h-25.5v12.1h23.6v8.8h-23.6v13.4h26.8v8.9h-37.1Z"/>
        <path class="st4" d="M-826-1100.2v-40.3h9v3.5c1.7-1,3.3-1.8,4.7-2.4,1.5-.6,2.9-1.1,4.4-1.4,1.5-.3,3-.5,4.7-.5,2.6,0,4.7.4,6.4,1.3,1.7.9,3,2.2,3.9,3.9.9,1.7,1.3,3.7,1.3,6.1v29.7h-9.9v-26.6c0-2-.5-3.6-1.5-4.6-1-1-2.5-1.5-4.4-1.5s-1.9,0-2.9.3c-1,.2-1.9.5-2.9.9-.9.4-1.9.8-3,1.4v30.1h-9.9Z"/>
        <path class="st4" d="M-775.9-1100.2l-14.3-40.1,10.4-.3,9.9,31.6,9.3-31.6,10.3.3-14.5,40.1h-11.1Z"/>
        <path class="st4" d="M-742.6-1146.2c-2,0-3.5-.4-4.5-1.2-.9-.8-1.4-2.1-1.4-3.9s.5-3.1,1.4-3.9c.9-.8,2.4-1.2,4.5-1.2s3.6.4,4.5,1.2c.9.8,1.3,2.1,1.3,3.9s-.4,3.1-1.3,3.9c-.9.8-2.4,1.2-4.5,1.2ZM-747.6-1100.2v-40.3h9.9v40.3h-9.9Z"/>
        <path class="st4" d="M-722.8-1140.5v4.8c1.4-1.3,2.8-2.4,3.9-3.2,1.2-.8,2.4-1.4,3.6-1.8,1.2-.4,2.6-.6,4.1-.6s1.7,0,2.6.2c.9.1,1.9.3,2.8.6l-1.6,9.1c-.8-.2-1.7-.4-2.7-.6-.9-.1-1.8-.2-2.6-.2-1.4,0-2.9.3-4.4.8-1.5.5-3.1,1.5-4.8,2.8v28.3h-9.9v-40.3h9Z"/>
        <path class="st4" d="M-707.2-1120.4c0-3.4.3-6.3,1-8.9.6-2.6,1.7-4.7,3.1-6.5,1.4-1.8,3.3-3.1,5.7-4,2.4-.9,5.4-1.3,9-1.3s6.6.4,9,1.3c2.4.9,4.4,2.2,5.8,4,1.4,1.8,2.5,4,3.1,6.5.6,2.6.9,5.5.9,8.9s-.3,6.5-1,9.1c-.7,2.6-1.7,4.8-3.2,6.5-1.5,1.8-3.4,3.1-5.8,4-2.4.9-5.3,1.3-8.8,1.3s-6.3-.4-8.7-1.3c-2.4-.9-4.3-2.2-5.8-4-1.5-1.8-2.5-3.9-3.2-6.5-.7-2.6-1-5.6-1-9.1ZM-697-1120.4c0,3.4.3,6,.9,8,.6,2,1.5,3.4,2.8,4.2,1.3.8,3,1.3,4.9,1.3s3.7-.4,5-1.3c1.2-.8,2.2-2.2,2.8-4.2.6-2,.9-4.6.9-8s-.3-5.9-.9-7.8c-.6-1.9-1.5-3.3-2.8-4.1-1.3-.8-3-1.2-5.1-1.2s-3.9.4-5.1,1.2c-1.2.8-2.1,2.2-2.7,4.1-.5,1.9-.8,4.5-.8,7.8Z"/>
        <path class="st4" d="M-665.3-1100.2v-40.3h9v3.5c1.7-1,3.3-1.8,4.7-2.4,1.5-.6,2.9-1.1,4.4-1.4,1.5-.3,3-.5,4.7-.5,2.6,0,4.7.4,6.4,1.3,1.7.9,3,2.2,3.9,3.9s1.3,3.7,1.3,6.1v29.7h-9.9v-26.6c0-2-.5-3.6-1.5-4.6-1-1-2.5-1.5-4.4-1.5s-1.9,0-2.9.3c-1,.2-1.9.5-2.9.9-.9.4-1.9.8-3,1.4v30.1h-9.9Z"/>
        <path class="st4" d="M-625.1-1100.2v-40.3h9v3.5c1.4-.9,2.9-1.7,4.3-2.3,1.4-.6,2.8-1.1,4.2-1.4,1.4-.3,2.8-.5,4.2-.5s2.9.2,4.1.6c1.2.4,2.1.9,2.9,1.5.8.6,1.5,1.5,2,2.5,1.5-.9,3-1.7,4.4-2.4,1.5-.7,3-1.2,4.5-1.6,1.6-.4,3.2-.6,4.9-.6s2.9.2,4,.6c1.1.4,2.1.9,3,1.6.8.7,1.5,1.5,2.1,2.5.6.9,1,2,1.3,3.1.3,1.1.4,2.4.4,3.6v29.6h-10v-26.5c0-.8,0-1.6-.3-2.4s-.4-1.4-.8-1.9c-.4-.5-.9-1-1.6-1.3-.7-.3-1.6-.5-2.6-.5s-1.9.1-2.9.3c-.9.2-1.8.5-2.6.9-.8.4-1.6.8-2.3,1.2.1.5.2,1.1.3,1.6,0,.5,0,1,0,1.4v27.2h-9.9v-26.5c0-.8,0-1.6-.3-2.3-.2-.7-.4-1.4-.8-1.9-.4-.6-.9-1-1.6-1.3-.7-.3-1.6-.5-2.6-.5s-1.7.1-2.6.3c-.9.2-1.7.5-2.5.9-.8.3-1.6.7-2.5,1.2v30.1h-9.9Z"/>
        <path class="st4" d="M-546.6-1099.5c-3,0-5.7-.4-8-1.2-2.3-.8-4.3-2-5.9-3.5-1.6-1.6-2.9-3.6-3.7-6.1-.8-2.5-1.2-5.5-1.2-9s.5-7.5,1.5-10.3c1-2.8,2.3-5,4.1-6.7,1.8-1.7,3.8-2.9,6.3-3.7,2.4-.8,5-1.2,7.9-1.2,5.6,0,9.7,1.4,12.4,4.2s4,7.5,4,13.9,0,.9,0,1.6c0,.7,0,1.4-.1,2.1-1.1,0-2.5.1-4.4.3-1.8.1-3.8.3-6.1.4s-4.6.3-7.2.4c-2.6.1-5.2.2-8,.2,0,.2,0,.5,0,.7v.5c0,2.3.4,4.1,1.1,5.5.7,1.4,1.9,2.4,3.5,3.1,1.6.7,3.5,1,5.8,1s3.1,0,4.6-.3c1.5-.2,3.1-.4,4.7-.7,1.6-.3,3.1-.6,4.6-.9l1.2,7.2c-1.5.5-3.2,1-5.1,1.4-1.8.4-3.7.6-5.6.8-1.9.2-3.9.3-6.2.3ZM-555.1-1124.3c1.7,0,3.4,0,5.1-.1,1.6,0,3.2-.2,4.6-.3,1.4,0,2.7-.2,3.7-.2,1,0,1.8,0,2.3-.1,0-2.2-.3-4-.8-5.3-.5-1.3-1.3-2.2-2.4-2.8-1-.6-2.4-.9-3.9-.9s-2,.1-2.9.4c-.9.3-1.8.8-2.6,1.5-.8.7-1.4,1.7-2,3-.5,1.3-.9,2.9-1.1,4.8Z"/>
        <path class="st4" d="M-525.1-1100.2v-40.3h9v3.5c1.7-1,3.3-1.8,4.7-2.4,1.5-.6,2.9-1.1,4.4-1.4,1.5-.3,3-.5,4.7-.5,2.6,0,4.7.4,6.4,1.3,1.7.9,3,2.2,3.9,3.9.9,1.7,1.3,3.7,1.3,6.1v29.7h-9.9v-26.6c0-2-.5-3.6-1.5-4.6-1-1-2.5-1.5-4.4-1.5s-1.9,0-2.9.3c-1,.2-1.9.5-2.9.9s-1.9.8-3,1.4v30.1h-9.9Z"/>
        <path class="st4" d="M-470.4-1099.5c-2.5,0-4.7-.5-6.4-1.5-1.8-1-3.1-2.5-3.9-4.5-.9-2-1.3-4.7-1.3-7.9v-19.9h-6.2v-6.5l6.2-.7,1.3-8.9h8.6v8.9h11.5v7.2h-11.5v19.1c0,2.3.4,3.9,1.3,4.9.8,1,2.2,1.5,4.1,1.5s2,0,3-.3c1-.2,2.1-.5,3.2-.8l1.3,7.6c-2,.7-3.9,1.2-5.8,1.5-1.9.3-3.6.4-5.3.4Z"/>
        <path class="st4" d="M-459.3-1110.7c0-2.5.5-4.5,1.4-6.1s2.4-2.8,4.4-3.7c2-.9,4.4-1.6,7.4-2.1,2.9-.5,6.4-.9,10.5-1.3v-3.8c0-1.7-.7-3-2-3.9-1.4-.9-3.3-1.3-5.8-1.3s-2.1,0-3.5.1c-1.3.1-2.7.3-4,.5-1.4.2-2.8.6-4.4,1.1l-1.6-8c2.2-.7,4.6-1.2,7.1-1.6,2.5-.4,4.9-.6,7-.6,4,0,7.2.5,9.7,1.5,2.5,1,4.4,2.5,5.6,4.5,1.2,2,1.8,4.5,1.8,7.5v16.1c0,1.4.2,2.3.6,2.8.4.5.9.7,1.6.7s.5,0,.9,0c.3,0,.6-.1.9-.3l.9,7.2c-.9.5-1.9,1-3,1.3-1.1.3-2.2.4-3.5.4-1.9,0-3.5-.4-4.8-1.2-1.2-.8-2.1-2.1-2.6-3.8-1.2.9-2.5,1.7-3.9,2.5-1.4.8-2.9,1.4-4.5,1.8s-3.4.7-5.3.7-3.1-.2-4.4-.7c-1.3-.5-2.5-1.2-3.4-2.2s-1.6-2.2-2.2-3.6c-.5-1.4-.8-3-.8-4.8ZM-449.1-1111.4c0,1.8.4,3.1,1.2,3.9.8.8,1.9,1.3,3.3,1.3s2.1-.2,3.1-.5c1-.3,2.1-.8,3.1-1.3,1-.6,1.9-1.2,2.8-2v-8.4c-2.1.1-4,.4-5.7.6-1.7.3-3.1.7-4.3,1.2-1.2.5-2.1,1.2-2.6,2.1-.6.9-.9,1.9-.9,3.1Z"/>
        <path class="st4" d="M-409.1-1155.3v42.1c0,1.4.2,2.5.5,3.2.3.7.8,1.3,1.4,1.5.6.3,1.2.4,1.9.4s1,0,1.6-.1c.6,0,1.3-.2,2-.4l.9,7.6c-1,.4-2.1.8-3.4,1.1-1.3.3-2.6.4-3.9.4-2.3,0-4.3-.4-5.9-1.2-1.6-.8-2.8-2.1-3.6-4-.8-1.9-1.3-4.4-1.3-7.7v-42.9h9.9Z"/>
      </g>
    </g>
  </g>
  <g>
    <g>
      <g>
        <path class="st11" d="M708.4,550.1c4.4-15.6,6.9-32.1,6.9-49.1,0-99-80.3-179.3-179.3-179.3s-179.3,80.3-179.3,179.3,2.4,33.5,6.9,49.1h344.9Z"/>
        <path class="st9" d="M702.2,550.1c4.8-15,7.4-31,7.4-47.6,0-86.1-69.8-155.9-155.9-155.9s-155.9,69.8-155.9,155.9,2.6,32.6,7.4,47.6h297Z"/>
      </g>
      <path class="st8" d="M260,506.5c75.5-45.9,169.2-60.5,259.9-31.3,66.2,21.3,120.5,62.4,158.5,114.7,15.9-9.9,30.9-21.1,44.8-33.6-49.4-67.9-125.7-116-215.6-127.3-94.5-11.9-184.7,19.5-250.4,78.5"/>
      <path class="st2" d="M265.2,506.3c79.2-39.1,168.7-45.3,256.5-8.4,64.1,26.9,114.7,72.6,148,128,16.7-8.4,32.6-18.3,47.6-29.6-43.4-71.9-115.1-126.5-203.7-145.6-93.1-20.1-179.9,3.5-250.5,56.6"/>
      <path class="st7" d="M413.5,713c-.4,5.7-.5,11.4-.5,17.1,31.9,15.7,67.5,25.4,105.2,27.8,153.5,9.5,285.6-107.2,295.1-260.6.4-5.7.5-11.4.5-17.1-32-15.7-67.5-25.4-105.2-27.8-153.5-9.5-285.6,107.2-295.1,260.6Z"/>
      <path class="st6" d="M433.9,703.6c-.3,5.1-.5,10.3-.5,15.4,28.7,14.1,60.6,22.8,94.5,25,137.8,8.5,256.4-96.2,265-234,.3-5.2.5-10.3.5-15.4-28.7-14.1-60.6-22.8-94.5-24.9-137.8-8.5-256.4,96.2-265,234Z"/>
      <path class="st10" d="M508.1,571.2c2.1.7,4.2,1.5,6.3,2.2,20.1-10,42-17.3,65.3-21.4,43.5-7.6,87-3.2,127.4,10.8,4.5-2.1,8.9-4.4,13.2-6.8-42.7-15.3-88.7-20.2-134.8-12.1-28,4.9-54,14.3-77.4,27.3ZM602.6,520.4c-40.2,7-76.1,23.2-106.4,46.2,1.5.6,2.9,1.2,4.4,1.8,27.8-19.7,60.3-33.5,96.2-39.8,48.7-8.5,97.5-2,141.9,16.3,3.6-2.5,7.2-5,10.7-7.6-45.9-18.9-96.4-25.6-146.7-16.8ZM619.6,497c-51.3,9-95.7,32.8-130.3,66.7,1.1.5,2.2,1,3.3,1.5,32.7-30.4,73.9-51.8,121.1-60.1,51.9-9.1,103.8-1.1,150.4,20,3.1-2.7,6.1-5.5,9-8.4-47.7-21.1-100.7-29-153.7-19.7ZM528.9,577.8c3.7,1,7.5,2,11.2,2.8,7.4-2,14.9-3.7,22.6-5.1,34.3-6,68.6-4.5,101.4,3.3,6.2-1.7,12.4-3.6,18.5-5.7-36.7-10-75.4-12.4-114.1-5.6-13.7,2.4-27,5.9-39.7,10.4ZM636.6,473.5c-61.9,10.4-113.7,43.3-150.4,88.8.9.4,1.8.8,2.7,1.2,35.2-42,84-71.8,141.9-82,53.5-9.4,107.1-.6,154.8,22.1,2.6-3,5.2-6,7.7-9.1-48.2-24.1-95.8-31.3-156.7-21.1Z"/>
      <g>
        <path class="st3" d="M257.3,507.5c13.4,133.3,121.7,241.1,259.7,249.7,59.3,3.7,115.5-11.5,162.6-40.4-13.4-133.3-121.7-241.1-259.7-249.7-59.3-3.7-115.5,11.5-162.6,40.4Z"/>
        <path class="st12" d="M300.7,529c10.7,105.9,96.7,191.5,206.3,198.3,47.1,2.9,91.7-9.2,129.2-32.1-10.6-105.9-96.7-191.5-206.3-198.3-47.1-2.9-91.8,9.2-129.2,32.1Z"/>
        <path class="st12" d="M278.6,516.9c12,119,108.7,215.3,232,223,53,3.3,103.1-10.3,145.2-36.1-12-119-108.7-215.3-232-223-53-3.3-103.1,10.3-145.2,36.1Z"/>
        <path class="st1" d="M448.4,572.6s149,26.6,193,139.3c2.8,7.2-123.7,62.4-236.4-2.1-39.5-22.6-83.6-60.9-107.3-119.3-.9.4,69.1-29.5,150.6-17.8Z"/>
        <path class="st3" d="M655.8,690.9s-43.4-96.2-207.4-118.3c3.6,2.6,151.9,34.1,192.4,140.8,2.8-1.1,15-7.4,15-7.4v-15.1Z"/>
      </g>
    </g>
    <g>
      <text class="st0" transform="translate(838.4 631.6)"><tspan x="0" y="0">Registry</tspan></text>
      <g>
        <path class="st3" d="M903.6,462.2c-1.7,0-3.4-.3-5.2-.9s-3.5-1.5-5.3-2.7c-1.8-1.2-3.6-2.7-5.4-4.5-1.8-1.8-3.7-4.1-5.8-6.7-2.1-2.6-4.2-5.6-6.4-8.9-.5,0-1.1,0-2,0h-5.6c-1.3,0-2.6,0-3.9,0v22.7h-12.7v-64.3c3.3-.2,6.3-.3,9-.5,2.7-.1,5.3-.2,7.6-.3,2.4,0,4.6,0,6.7,0,4.9,0,9.1.4,12.6,1.1,3.5.7,6.4,1.9,8.5,3.4,2.2,1.5,3.8,3.5,4.8,6s1.5,5.5,1.5,9-.6,6.8-1.7,9.5c-1.1,2.6-2.7,4.8-4.8,6.4-2.1,1.6-4.6,2.9-7.6,3.8,1.8,2.6,3.6,4.7,5.2,6.5,1.7,1.8,3.2,3.3,4.6,4.5,1.4,1.2,2.7,2.1,3.8,2.7,1.1.6,2.2.9,3.4.9s.4,0,.7,0c.3,0,.5,0,.7,0l.2,12.1c-.4,0-.8.1-1.3.2-.5,0-1.1,0-1.8,0ZM874.3,428.6c2.4,0,4.6-.2,6.6-.6s3.5-1,4.7-1.9c1.2-.9,2.1-2,2.7-3.4.6-1.4.9-3.2.9-5.4s-.4-4.9-1.3-6.5c-.9-1.7-2.3-2.8-4.4-3.5-2.1-.7-4.9-1.1-8.6-1.1h-2.8c-.8,0-1.6,0-2.3,0-.8,0-1.6,0-2.5,0-.9,0-2,.1-3.4.2v21.8c1,0,2,.1,2.8.1.8,0,1.7,0,2.5,0,.9,0,1.7,0,2.4,0h2.5Z"/>
        <path class="st3" d="M923.8,462.2c-2.9,0-5.4-.5-7.5-1.6s-3.8-2.6-5-4.8c-1.2-2.1-1.8-4.8-1.8-8.1v-36.2h12.2v33.4c0,2.3.6,4,1.8,5.2s2.9,1.8,5.1,1.8,2.5-.1,3.5-.4c1.1-.2,2.2-.6,3.3-1.1,1.1-.5,2.3-1,3.5-1.7v-37.3h12.1v36c0,1,.1,1.8.4,2.5.2.7.6,1.1,1,1.4.4.2.9.4,1.4.4.7,0,1.5-.2,2.2-.6l1.1,8.8c-.7.4-1.5.8-2.4,1.1-.9.3-1.8.6-2.8.7-1,.2-2,.3-3.1.3-2,0-3.7-.4-5.2-1.3-1.4-.9-2.5-2.1-3.3-3.9-1.8,1-3.5,1.9-5.3,2.7s-3.5,1.4-5.4,1.8c-1.9.4-3.8.6-5.9.6Z"/>
        <path class="st3" d="M971.1,411.6v6c1.8-1.7,3.4-3,4.9-4s3-1.7,4.5-2.2c1.5-.5,3.2-.7,5-.7s2,0,3.2.2c1.2.2,2.3.4,3.4.7l-2,11.2c-1-.3-2.1-.5-3.3-.7-1.2-.2-2.2-.2-3.2-.2-1.8,0-3.6.3-5.5,1-1.9.7-3.8,1.8-5.9,3.5v34.9h-12.2v-49.7h11.1Z"/>
        <path class="st3" d="M989.8,448.3c0-3.1.6-5.6,1.7-7.5,1.2-1.9,3-3.5,5.4-4.6,2.4-1.1,5.4-2,9.1-2.6,3.6-.6,7.9-1.1,12.9-1.6v-4.7c0-2.1-.8-3.7-2.5-4.8-1.7-1.1-4.1-1.7-7.2-1.7s-2.6,0-4.3.2c-1.6.1-3.3.3-5,.6-1.7.3-3.5.8-5.4,1.4l-2-9.8c2.8-.9,5.7-1.5,8.8-2s6-.7,8.6-.7c4.9,0,8.9.6,12,1.8,3.1,1.2,5.4,3.1,6.9,5.6,1.5,2.5,2.2,5.6,2.2,9.3v19.8c0,1.7.2,2.9.7,3.5.5.6,1.1.9,1.9.9s.7,0,1.1,0c.4,0,.8-.2,1.1-.4l1.1,8.9c-1.2.7-2.4,1.2-3.7,1.6-1.3.4-2.7.6-4.3.6-2.4,0-4.3-.5-5.9-1.5-1.5-1-2.6-2.6-3.2-4.6-1.5,1.1-3.1,2.1-4.8,3.1-1.7.9-3.5,1.7-5.5,2.2-2,.6-4.2.8-6.6.8s-3.8-.3-5.4-.9-3-1.5-4.2-2.7c-1.1-1.2-2-2.7-2.7-4.4-.7-1.7-1-3.7-1-5.9ZM1002.3,447.4c0,2.2.5,3.8,1.5,4.9,1,1,2.3,1.6,4,1.6s2.6-.2,3.9-.6c1.3-.4,2.6-.9,3.8-1.7,1.3-.7,2.4-1.5,3.4-2.4v-10.4c-2.6.2-5,.4-7,.8-2.1.3-3.8.8-5.3,1.5s-2.6,1.5-3.3,2.6c-.7,1.1-1.1,2.3-1.1,3.8Z"/>
        <path class="st3" d="M1051.7,393.3v52c0,1.7.2,3,.6,3.9.4.9,1,1.5,1.7,1.9.7.3,1.5.5,2.3.5s1.3,0,2-.2c.7-.1,1.5-.3,2.5-.6l1.1,9.4c-1.2.6-2.6,1-4.2,1.4-1.6.4-3.2.6-4.9.6-2.9,0-5.3-.5-7.3-1.5-2-1-3.5-2.6-4.5-5-1-2.3-1.6-5.5-1.6-9.5v-53h12.2Z"/>
        <path class="st3" d="M1087.2,461.3v-64.3h44.1v11h-31.4v14.9h29.1v10.8h-29.1v16.5h33v11h-45.7Z"/>
        <path class="st3" d="M1137.5,461.3v-49.7h11.1v4.3c2.1-1.2,4-2.2,5.8-2.9,1.8-.7,3.6-1.3,5.4-1.7,1.8-.4,3.7-.6,5.7-.6,3.2,0,5.8.6,7.9,1.7s3.7,2.7,4.8,4.8c1.1,2.1,1.6,4.6,1.6,7.5v36.6h-12.2v-32.8c0-2.5-.6-4.4-1.9-5.6-1.3-1.3-3-1.9-5.4-1.9s-2.3.1-3.5.4c-1.2.2-2.4.6-3.5,1.1-1.2.5-2.4,1-3.7,1.7v37.2h-12.2Z"/>
        <path class="st3" d="M1199.4,461.3l-17.6-49.5,12.9-.4,12.2,39,11.5-39,12.7.4-17.9,49.5h-13.7Z"/>
        <path class="st3" d="M1240.4,404.5c-2.5,0-4.3-.5-5.5-1.5-1.2-1-1.7-2.6-1.7-4.8s.6-3.8,1.7-4.8c1.1-1,3-1.5,5.6-1.5s4.4.5,5.5,1.5c1.1,1,1.7,2.6,1.7,4.8s-.6,3.8-1.7,4.8c-1.1,1-2.9,1.5-5.5,1.5ZM1234.2,461.3v-49.7h12.2v49.7h-12.2Z"/>
        <path class="st3" d="M1264.8,411.6v6c1.8-1.7,3.4-3,4.9-4s3-1.7,4.5-2.2c1.5-.5,3.2-.7,5-.7s2,0,3.2.2c1.2.2,2.3.4,3.4.7l-2,11.2c-1-.3-2.1-.5-3.3-.7-1.2-.2-2.2-.2-3.2-.2-1.8,0-3.6.3-5.5,1-1.9.7-3.8,1.8-5.9,3.5v34.9h-12.2v-49.7h11.1Z"/>
        <path class="st3" d="M1284.1,436.3c0-4.2.4-7.8,1.2-11,.8-3.2,2-5.8,3.8-8,1.7-2.2,4.1-3.9,7.1-5,3-1.1,6.7-1.7,11.1-1.7s8.1.6,11.1,1.7c3,1.1,5.4,2.8,7.2,5,1.8,2.2,3,4.9,3.8,8,.8,3.2,1.1,6.8,1.1,11s-.4,8-1.2,11.2c-.8,3.2-2.2,5.9-4,8.1-1.8,2.2-4.2,3.8-7.2,4.9s-6.5,1.7-10.8,1.7-7.8-.6-10.7-1.7-5.3-2.7-7.1-4.9c-1.8-2.2-3.1-4.9-4-8.1-.9-3.2-1.3-7-1.3-11.2ZM1296.6,436.3c0,4.2.4,7.5,1.1,9.9.7,2.4,1.9,4.1,3.5,5.2,1.6,1,3.7,1.6,6.1,1.6s4.6-.5,6.1-1.6c1.5-1,2.7-2.8,3.4-5.2.8-2.4,1.1-5.7,1.1-9.9s-.4-7.3-1.1-9.6c-.7-2.4-1.8-4.1-3.4-5.1s-3.7-1.5-6.3-1.5-4.8.5-6.3,1.5c-1.5,1-2.6,2.7-3.3,5.1-.7,2.4-1,5.6-1,9.6Z"/>
        <path class="st3" d="M1335.8,461.3v-49.7h11.1v4.3c2.1-1.2,4-2.2,5.8-2.9,1.8-.7,3.6-1.3,5.4-1.7,1.8-.4,3.7-.6,5.7-.6,3.2,0,5.8.6,7.9,1.7s3.7,2.7,4.8,4.8c1.1,2.1,1.6,4.6,1.6,7.5v36.6h-12.2v-32.8c0-2.5-.6-4.4-1.9-5.6-1.3-1.3-3-1.9-5.4-1.9s-2.3.1-3.5.4c-1.2.2-2.4.6-3.5,1.1-1.2.5-2.4,1-3.7,1.7v37.2h-12.2Z"/>
        <path class="st3" d="M1385.3,461.3v-49.7h11.1v4.3c1.8-1.2,3.5-2.1,5.3-2.8s3.5-1.3,5.2-1.7c1.7-.4,3.5-.6,5.2-.6s3.6.2,5,.7c1.4.5,2.6,1.1,3.6,1.9,1,.8,1.8,1.8,2.5,3,1.8-1.2,3.7-2.2,5.5-3,1.8-.8,3.7-1.5,5.6-2,1.9-.5,3.9-.7,6-.7s3.5.2,5,.7c1.4.5,2.6,1.1,3.7,2,1,.9,1.9,1.9,2.6,3,.7,1.2,1.2,2.4,1.6,3.9.3,1.4.5,2.9.5,4.5v36.5h-12.3v-32.7c0-1-.1-2-.3-2.9-.2-.9-.6-1.7-1-2.4-.5-.7-1.1-1.2-2-1.6-.9-.4-1.9-.6-3.2-.6s-2.4.1-3.5.4c-1.1.3-2.2.6-3.2,1.1s-2,.9-2.9,1.4c.2.7.3,1.3.4,1.9,0,.6,0,1.2,0,1.7v33.6h-12.2v-32.7c0-1-.1-1.9-.3-2.8-.2-.9-.6-1.7-1-2.4-.5-.7-1.1-1.3-2-1.7-.9-.4-2-.6-3.3-.6s-2.1.1-3.2.4c-1.1.3-2.1.6-3,1.1-1,.4-2,.9-3.1,1.5v37.2h-12.2Z"/>
        <path class="st3" d="M1482.1,462.2c-3.7,0-7-.5-9.9-1.5s-5.3-2.4-7.3-4.4-3.5-4.5-4.5-7.6c-1-3.1-1.5-6.8-1.5-11.1s.6-9.3,1.8-12.7c1.2-3.5,2.9-6.2,5-8.3,2.2-2,4.7-3.6,7.7-4.5,3-1,6.2-1.5,9.7-1.5,6.9,0,11.9,1.7,15.2,5.2s5,9.2,5,17.2,0,1.2,0,2c0,.9,0,1.7-.1,2.6-1.3,0-3.1.2-5.4.3-2.2.2-4.7.3-7.5.5s-5.7.4-8.9.6c-3.2.2-6.5.3-9.8.3,0,.3,0,.6,0,.8v.6c0,2.8.5,5.1,1.4,6.7.9,1.7,2.3,2.9,4.3,3.8s4.3,1.2,7.2,1.2,3.8-.1,5.7-.3c1.9-.2,3.8-.5,5.7-.8,1.9-.3,3.8-.7,5.6-1.1l1.5,8.9c-1.9.7-4,1.2-6.2,1.7-2.3.5-4.6.8-6.9,1-2.3.2-4.9.3-7.6.3ZM1471.6,431.5c2.1,0,4.2,0,6.2-.1s3.9-.2,5.7-.3c1.8-.1,3.3-.2,4.6-.3,1.3,0,2.2-.1,2.8-.2,0-2.8-.3-4.9-1-6.5-.7-1.6-1.7-2.8-2.9-3.5-1.3-.7-2.9-1.1-4.9-1.1s-2.4.2-3.6.5c-1.2.3-2.2,1-3.2,1.9-1,.9-1.8,2.2-2.4,3.7-.7,1.6-1.1,3.5-1.4,5.9Z"/>
        <path class="st3" d="M1508.6,461.3v-49.7h11.1v4.3c2.1-1.2,4-2.2,5.8-2.9,1.8-.7,3.6-1.3,5.4-1.7,1.8-.4,3.7-.6,5.7-.6,3.2,0,5.8.6,7.9,1.7s3.7,2.7,4.8,4.8c1.1,2.1,1.6,4.6,1.6,7.5v36.6h-12.2v-32.8c0-2.5-.6-4.4-1.9-5.6-1.3-1.3-3-1.9-5.4-1.9s-2.3.1-3.5.4c-1.2.2-2.4.6-3.5,1.1-1.2.5-2.4,1-3.7,1.7v37.2h-12.2Z"/>
        <path class="st3" d="M1576.1,462.2c-3.1,0-5.8-.6-7.9-1.8-2.2-1.2-3.8-3.1-4.9-5.6-1.1-2.5-1.6-5.8-1.6-9.7v-24.6h-7.6v-8l7.6-.8,1.6-11h10.6v11h14.1v8.9h-14.1v23.6c0,2.8.5,4.8,1.6,6,1,1.2,2.7,1.8,5,1.8s2.5-.1,3.7-.4c1.3-.2,2.6-.6,4-1l1.7,9.4c-2.4.9-4.8,1.5-7.1,1.8-2.3.3-4.5.5-6.6.5Z"/>
        <path class="st3" d="M1589.8,448.3c0-3.1.6-5.6,1.7-7.5,1.2-1.9,3-3.5,5.4-4.6,2.4-1.1,5.4-2,9.1-2.6,3.6-.6,7.9-1.1,12.9-1.6v-4.7c0-2.1-.8-3.7-2.5-4.8-1.7-1.1-4.1-1.7-7.2-1.7s-2.6,0-4.3.2c-1.6.1-3.3.3-5,.6-1.7.3-3.5.8-5.4,1.4l-2-9.8c2.8-.9,5.7-1.5,8.8-2s6-.7,8.6-.7c4.9,0,8.9.6,12,1.8,3.1,1.2,5.4,3.1,6.9,5.6,1.5,2.5,2.2,5.6,2.2,9.3v19.8c0,1.7.2,2.9.7,3.5.5.6,1.1.9,1.9.9s.7,0,1.1,0c.4,0,.8-.2,1.1-.4l1.1,8.9c-1.2.7-2.4,1.2-3.7,1.6-1.3.4-2.7.6-4.3.6-2.4,0-4.3-.5-5.9-1.5-1.5-1-2.6-2.6-3.2-4.6-1.5,1.1-3.1,2.1-4.8,3.1-1.7.9-3.5,1.7-5.5,2.2-2,.6-4.2.8-6.6.8s-3.8-.3-5.4-.9-3-1.5-4.2-2.7c-1.1-1.2-2-2.7-2.7-4.4-.7-1.7-1-3.7-1-5.9ZM1602.3,447.4c0,2.2.5,3.8,1.5,4.9,1,1,2.3,1.6,4,1.6s2.6-.2,3.9-.6c1.3-.4,2.6-.9,3.8-1.7,1.3-.7,2.4-1.5,3.4-2.4v-10.4c-2.6.2-5,.4-7,.8-2.1.3-3.8.8-5.3,1.5s-2.6,1.5-3.3,2.6c-.7,1.1-1.1,2.3-1.1,3.8Z"/>
        <path class="st3" d="M1651.7,393.3v52c0,1.7.2,3,.6,3.9.4.9,1,1.5,1.7,1.9.7.3,1.5.5,2.3.5s1.3,0,2-.2c.7-.1,1.5-.3,2.5-.6l1.1,9.4c-1.2.6-2.6,1-4.2,1.4-1.6.4-3.2.6-4.9.6-2.9,0-5.3-.5-7.3-1.5-2-1-3.5-2.6-4.5-5-1-2.3-1.6-5.5-1.6-9.5v-53h12.2Z"/>
      </g>
    </g>
  </g>
</svg>